<svg width="25" height="25" viewBox="0 0 25 25" fill="none" xmlns="http://www.w3.org/2000/svg">
<path d="M12.9458 2.78906C9.0758 2.78906 5.9458 5.91906 5.9458 9.78906C5.9458 15.0391 12.9458 22.7891 12.9458 22.7891C12.9458 22.7891 19.9458 15.0391 19.9458 9.78906C19.9458 5.91906 16.8158 2.78906 12.9458 2.78906ZM12.9458 12.2891C12.2828 12.2891 11.6469 12.0257 11.178 11.5568C10.7092 11.088 10.4458 10.4521 10.4458 9.78906C10.4458 9.12602 10.7092 8.49014 11.178 8.0213C11.6469 7.55245 12.2828 7.28906 12.9458 7.28906C13.6088 7.28906 14.2447 7.55245 14.7136 8.0213C15.1824 8.49014 15.4458 9.12602 15.4458 9.78906C15.4458 10.4521 15.1824 11.088 14.7136 11.5568C14.2447 12.0257 13.6088 12.2891 12.9458 12.2891Z" fill="#343434"/>
</svg>
