<svg width="216" height="235" viewBox="0 0 216 235" fill="none" xmlns="http://www.w3.org/2000/svg">
<path fill-rule="evenodd" clip-rule="evenodd" d="M126.262 66.4671C126.262 48.3089 140.982 33.5889 159.14 33.5889C177.298 33.5889 192.018 48.3089 192.018 66.4671V171.174L178.055 162.872V66.6936C178.055 56.1983 169.547 47.6903 159.052 47.6903C148.557 47.6903 140.048 56.1984 140.048 66.6936V140.273L126.262 132.076V66.4671Z" fill="#343434"/>
<path fill-rule="evenodd" clip-rule="evenodd" d="M50.248 154.965V56.7055L107.258 91.2827L162.523 55.4404L163.557 154.252L149.531 145.911V84.1143L107.258 109.836L65.1792 84.1143V145.883L50.248 154.965Z" fill="#343434"/>
<path fill-rule="evenodd" clip-rule="evenodd" d="M23.0742 66.4671C23.0742 48.3089 37.7943 33.5889 55.9524 33.5889C74.1105 33.5889 88.8306 48.3089 88.8306 66.4671V131.491L74.8675 139.985V66.6936C74.8675 56.1983 66.3595 47.6903 55.8643 47.6903C45.369 47.6903 36.861 56.1984 36.861 66.6936V163.104L23.0742 171.49V66.4671Z" fill="#343434"/>
<path d="M107.006 128.086L23.5059 178.586V192.586L107.006 141.586L192.506 192.586V178.586L107.006 128.086Z" fill="#343434"/>
<path d="M12.5745 207.738H16.5661L21.519 222.684L26.5448 207.738H30.4781L34.0908 229.167H30.1576L27.8559 215.634L23.2963 229.167H19.6981L15.1967 215.634L12.8513 229.167H8.87438L12.5745 207.738ZM50.1356 213.317H54.098V229.167H50.1356V227.492C49.3586 228.23 48.5768 228.764 47.7902 229.094C47.0133 229.415 46.1683 229.575 45.2554 229.575C43.2063 229.575 41.4339 228.783 39.9383 227.2C38.4427 225.608 37.6949 223.631 37.6949 221.271C37.6949 218.824 38.4184 216.819 39.8654 215.255C41.3125 213.691 43.0703 212.91 45.1389 212.91C46.0906 212.91 46.9841 213.089 47.8193 213.449C48.6545 213.808 49.4266 214.347 50.1356 215.066V213.317ZM45.9547 216.581C44.7213 216.581 43.6967 217.018 42.8809 217.892C42.0651 218.756 41.6572 219.868 41.6572 221.228C41.6572 222.597 42.07 223.724 42.8955 224.607C43.7307 225.491 44.7553 225.933 45.9693 225.933C47.2221 225.933 48.2612 225.501 49.0867 224.636C49.9122 223.762 50.325 222.621 50.325 221.213C50.325 219.834 49.9122 218.717 49.0867 217.863C48.2612 217.008 47.2172 216.581 45.9547 216.581ZM59.5958 213.317H68.8462V217.105H63.5873V229.167H59.5958V213.317ZM74.6062 206.791C75.3054 206.791 75.9027 207.044 76.398 207.549C76.903 208.054 77.1555 208.666 77.1555 209.384C77.1555 210.093 76.9079 210.7 76.4126 211.205C75.9173 211.7 75.3249 211.948 74.6353 211.948C73.9264 211.948 73.3194 211.696 72.8144 211.191C72.3191 210.676 72.0714 210.054 72.0714 209.326C72.0714 208.627 72.3191 208.029 72.8144 207.534C73.3097 207.039 73.9069 206.791 74.6062 206.791ZM72.6104 213.317H76.6019V229.167H72.6104V213.317ZM84.4014 222.67C83.5468 222.388 82.8427 221.859 82.2891 221.082C81.7453 220.295 81.4733 219.412 81.4733 218.431C81.4733 217.256 81.8084 216.226 82.4785 215.342C83.1486 214.459 83.945 213.9 84.8676 213.667C85.7999 213.434 87.2518 213.317 89.2233 213.317H93.2439V229.167H89.2524V223.427H88.4803L84.7073 229.167H80.002L84.4014 222.67ZM89.2524 220.441V216.639H87.8685C86.3632 216.639 85.6105 217.27 85.6105 218.533C85.6105 219.805 86.4506 220.441 88.1307 220.441H89.2524ZM110.664 229.167V231.92H107.124V225.802H109.513L114.976 213.317H117.54L123.075 225.802H125.508V231.92H121.721V229.167H110.664ZM118.851 225.802L116.258 219.13L113.577 225.802H118.851ZM136.979 212.91C138.474 212.91 139.878 213.283 141.189 214.031C142.51 214.779 143.539 215.794 144.277 217.076C145.015 218.358 145.384 219.742 145.384 221.228C145.384 222.723 145.01 224.122 144.263 225.423C143.524 226.724 142.514 227.744 141.232 228.482C139.951 229.211 138.537 229.575 136.993 229.575C134.721 229.575 132.778 228.769 131.166 227.157C129.564 225.535 128.763 223.568 128.763 221.257C128.763 218.78 129.671 216.717 131.487 215.066C133.079 213.628 134.91 212.91 136.979 212.91ZM137.037 216.653C135.804 216.653 134.774 217.086 133.949 217.95C133.133 218.805 132.725 219.902 132.725 221.242C132.725 222.621 133.128 223.738 133.934 224.593C134.75 225.447 135.779 225.875 137.022 225.875C138.266 225.875 139.3 225.443 140.125 224.578C140.951 223.714 141.364 222.602 141.364 221.242C141.364 219.883 140.956 218.78 140.14 217.935C139.334 217.081 138.3 216.653 137.037 216.653ZM165.289 206.864V210.622C164.153 210.749 163.051 210.817 161.983 210.826C160.04 210.846 158.579 210.933 157.598 211.089C156.617 211.234 155.752 211.584 155.005 212.137C154.257 212.681 153.728 213.313 153.417 214.031C153.106 214.74 152.917 215.765 152.849 217.105C153.995 214.357 155.961 212.982 158.749 212.982C160.798 212.982 162.57 213.735 164.066 215.24C165.571 216.736 166.324 218.669 166.324 221.038C166.324 223.486 165.518 225.52 163.905 227.142C162.293 228.764 160.302 229.575 157.933 229.575C156 229.575 154.296 228.982 152.819 227.798C151.353 226.613 150.411 225.205 149.993 223.573C149.576 221.932 149.367 220.184 149.367 218.329C149.367 215.949 149.663 214.017 150.256 212.531C150.848 211.035 151.625 209.914 152.586 209.166C153.558 208.418 154.679 207.918 155.952 207.665C157.224 207.413 159.093 207.233 161.56 207.126C163.23 207.049 164.474 206.961 165.289 206.864ZM162.303 221.242C162.303 219.921 161.905 218.829 161.108 217.965C160.322 217.09 159.278 216.653 157.976 216.653C156.733 216.653 155.704 217.09 154.888 217.965C154.072 218.839 153.664 219.931 153.664 221.242C153.664 222.621 154.067 223.738 154.874 224.593C155.689 225.438 156.719 225.86 157.962 225.86C159.186 225.86 160.215 225.438 161.05 224.593C161.885 223.738 162.303 222.621 162.303 221.242ZM175.041 213.317V215.066C175.76 214.347 176.536 213.808 177.372 213.449C178.207 213.089 179.1 212.91 180.052 212.91C182.121 212.91 183.879 213.691 185.326 215.255C186.773 216.819 187.496 218.824 187.496 221.271C187.496 223.631 186.748 225.608 185.253 227.2C183.757 228.783 181.985 229.575 179.936 229.575C179.023 229.575 178.173 229.415 177.386 229.094C176.6 228.764 175.818 228.23 175.041 227.492V234.965H171.093V213.317H175.041ZM179.222 216.581C177.969 216.581 176.93 217.008 176.104 217.863C175.279 218.717 174.866 219.834 174.866 221.213C174.866 222.621 175.279 223.762 176.104 224.636C176.93 225.501 177.969 225.933 179.222 225.933C180.436 225.933 181.455 225.491 182.281 224.607C183.116 223.724 183.534 222.597 183.534 221.228C183.534 219.868 183.126 218.756 182.31 217.892C181.494 217.018 180.465 216.581 179.222 216.581ZM203.992 213.317H207.955V229.167H203.992V227.492C203.216 228.23 202.434 228.764 201.647 229.094C200.87 229.415 200.025 229.575 199.112 229.575C197.063 229.575 195.291 228.783 193.795 227.2C192.3 225.608 191.552 223.631 191.552 221.271C191.552 218.824 192.275 216.819 193.722 215.255C195.169 213.691 196.927 212.91 198.996 212.91C199.948 212.91 200.841 213.089 201.676 213.449C202.511 213.808 203.284 214.347 203.992 215.066V213.317ZM199.812 216.581C198.578 216.581 197.554 217.018 196.738 217.892C195.922 218.756 195.514 219.868 195.514 221.228C195.514 222.597 195.927 223.724 196.752 224.607C197.588 225.491 198.612 225.933 199.826 225.933C201.079 225.933 202.118 225.501 202.944 224.636C203.769 223.762 204.182 222.621 204.182 221.213C204.182 219.834 203.769 218.717 202.944 217.863C202.118 217.008 201.074 216.581 199.812 216.581Z" fill="#343434"/>
</svg>
