<svg width="115" height="17" viewBox="0 0 115 17" fill="none" xmlns="http://www.w3.org/2000/svg">
<path fill-rule="evenodd" clip-rule="evenodd" d="M18.3079 16.5063V8.28243C18.3079 5.94959 17.0384 4.84208 14.9064 4.84208C13.1338 4.84208 11.6007 5.8789 10.9299 6.91572C10.4987 5.6197 9.42079 4.84208 7.72001 4.84208C5.94737 4.84208 4.41427 5.92603 3.93518 6.60939V5.12485H0.892944V16.5063H3.93518V8.84797C4.39032 8.21174 5.27664 7.50482 6.33064 7.50482C7.57628 7.50482 8.05537 8.25887 8.05537 9.31925V16.5063H11.1216V8.82441C11.5527 8.21174 12.4391 7.50482 13.517 7.50482C14.7627 7.50482 15.2418 8.25887 15.2418 9.31925V16.5063H18.3079ZM26.6681 16.7891C22.8593 16.7891 20.5597 14.0556 20.5597 10.8038C20.5597 7.57551 22.8593 4.84208 26.6681 4.84208C30.5008 4.84208 32.8005 7.57551 32.8005 10.8038C32.8005 14.0556 30.5008 16.7891 26.6681 16.7891ZM26.6681 14.1263C28.5605 14.1263 29.6385 12.5947 29.6385 10.8038C29.6385 9.03649 28.5605 7.50482 26.6681 7.50482C24.7757 7.50482 23.7217 9.03649 23.7217 10.8038C23.7217 12.5947 24.7757 14.1263 26.6681 14.1263ZM45.9037 16.5063V8.47095C45.9037 6.25593 44.682 4.84208 42.1428 4.84208C40.2504 4.84208 38.837 5.73752 38.0945 6.60939V5.12485H35.0522V16.5063H38.0945V8.84797C38.5975 8.16461 39.5317 7.50482 40.7295 7.50482C42.023 7.50482 42.8614 8.0468 42.8614 9.62559V16.5063H45.9037ZM54.2878 16.7891C50.479 16.7891 48.1793 14.0556 48.1793 10.8038C48.1793 7.57551 50.479 4.84208 54.2878 4.84208C58.1205 4.84208 60.4202 7.57551 60.4202 10.8038C60.4202 14.0556 58.1205 16.7891 54.2878 16.7891ZM54.2878 14.1263C56.1802 14.1263 57.2581 12.5947 57.2581 10.8038C57.2581 9.03649 56.1802 7.50482 54.2878 7.50482C52.3954 7.50482 51.3414 9.03649 51.3414 10.8038C51.3414 12.5947 52.3954 14.1263 54.2878 14.1263ZM65.7141 12.8539C66.2172 13.5844 67.343 14.1263 68.3252 14.1263C70.0978 14.1263 71.2716 12.8067 71.2716 10.8274C71.2716 8.84797 70.0978 7.50482 68.3252 7.50482C67.343 7.50482 66.2172 8.07036 65.7141 8.82441V12.8539ZM65.7141 16.5063H62.6719V0.789062H65.7141V6.58582C66.6244 5.43118 67.918 4.84208 69.2834 4.84208C72.2298 4.84208 74.4097 7.10423 74.4097 10.8274C74.4097 14.6212 72.2058 16.7891 69.2834 16.7891C67.894 16.7891 66.6244 16.1764 65.7141 15.0453V16.5063ZM86.6984 16.5063H83.6561V15.3281C82.8656 16.2471 81.5002 16.7891 79.9911 16.7891C78.1466 16.7891 75.9667 15.5637 75.9667 13.0188C75.9667 10.3561 78.1466 9.34282 79.9911 9.34282C81.5242 9.34282 82.8896 9.83766 83.6561 10.7331V9.20144C83.6561 8.0468 82.65 7.29274 81.1169 7.29274C79.8713 7.29274 78.7215 7.74046 77.7393 8.6359L76.5895 6.63295C78.0028 5.40762 79.8234 4.84208 81.6439 4.84208C84.279 4.84208 86.6984 5.8789 86.6984 9.15431V16.5063ZM81.2128 14.7626C82.1949 14.7626 83.1531 14.4327 83.6561 13.7729V12.359C83.1531 11.6992 82.1949 11.3693 81.2128 11.3693C80.015 11.3693 79.0329 11.982 79.0329 13.0895C79.0329 14.1499 80.015 14.7626 81.2128 14.7626ZM100.568 16.5063V8.47095C100.568 6.25593 99.3464 4.84208 96.8072 4.84208C94.9148 4.84208 93.5015 5.73752 92.7589 6.60939V5.12485H89.7166V16.5063H92.7589V8.84797C93.2619 8.16461 94.1962 7.50482 95.3939 7.50482C96.6874 7.50482 97.5259 8.0468 97.5259 9.62559V16.5063H100.568ZM114.893 16.5063L110.174 10.2854L114.749 5.12485H111.012L106.629 10.1911V0.789062H103.586V16.5063H106.629V13.5844L108.018 12.1234L111.084 16.5063H114.893Z" fill="#343434"/>
</svg>
