<svg width="73" height="73" viewBox="0 0 73 73" fill="none" xmlns="http://www.w3.org/2000/svg">
<path d="M57.3521 19.7121L64.1508 9.90625M54.6064 35.4016L68.2039 22.85" stroke="#343434" stroke-linecap="round" stroke-linejoin="round"/>
<path d="M10.2832 11.084L18.6509 24.943" stroke="#343434" stroke-linecap="round" stroke-linejoin="round"/>
<path d="M24.5352 4.02344L26.2348 10.9529" stroke="#343434" stroke-linecap="round" stroke-linejoin="round"/>
<path d="M10.8066 28.2109L18.7821 35.9249" stroke="#343434" stroke-linecap="round" stroke-linejoin="round"/>
<path d="M5.44629 22.8535L7.7997 25.4684" stroke="#343434" stroke-linecap="round" stroke-linejoin="round"/>
<path d="M22.7453 57.7621C22.7453 57.7621 19.0844 58.8076 17.9078 62.3377C16.9241 65.2892 26.818 64.844 34.7479 63.3322M48.3714 51.6166C48.3714 51.6166 54.457 49.9983 56.2161 52.5318C57.6299 54.5679 56.0062 56.2935 53.107 57.7621M53.107 57.7621L57.0902 59.7228M53.107 57.7621C50.5294 59.0679 46.9435 60.1707 43.5875 61.1082M43.5875 61.1082C41.9914 61.554 40.4473 61.9625 39.0885 62.3377C37.7816 62.6985 36.3025 63.0359 34.7479 63.3322M43.5875 61.1082L48.3714 64.0374M34.7479 63.3322L34.0791 59.7228" stroke="#343434" stroke-linecap="round" stroke-linejoin="round"/>
<path d="M7.27637 42.9844C7.27637 42.9844 7.6025 45.0717 9.17621 47.0348M20.3509 56.0589C20.3509 56.0589 21.1623 53.5404 19.8875 51.6136M9.17621 47.0348C9.83053 47.851 10.7005 48.6458 11.8524 49.2601C12.0643 49.3731 12.2673 49.4726 12.4619 49.5598M9.17621 47.0348L11.8524 43.7688M9.17621 51.6136L12.4619 49.5598M12.4619 49.5598C14.8165 50.615 15.967 49.8921 17.2069 49.9403M17.2069 49.9403C17.7624 49.9618 18.3358 50.1381 19.0434 50.6983C19.3944 50.9762 19.671 51.2863 19.8875 51.6136M17.2069 49.9403V46.3837M19.8875 51.6136L16.4285 54.2285" stroke="#343434" stroke-linecap="round" stroke-linejoin="round"/>
<path d="M27.4113 59.4598C27.4113 59.4598 29.7648 43.5084 28.7188 39.5866C27.6728 35.6647 23.8852 32.6829 23.0967 27.558C22.6697 24.7824 22.8353 20.8891 22.8352 20.3339C22.8352 19.7787 22.8822 15.5478 25.0579 14.8757C26.4659 14.4408 28.7188 15.7909 28.7188 15.7909C28.7188 15.7909 29.6475 12.5771 31.3337 12.2608C32.3683 12.0668 33.9486 12.9146 33.9486 12.9146C33.9486 12.9146 35.3271 10.5468 36.825 10.2997C37.9738 10.1101 39.7014 11.0841 39.7014 11.0841C39.7014 11.0841 41.6058 8.42822 43.3622 8.46922C45.4199 8.51725 47.0231 12.9814 47.0231 12.9814M44.8004 54.8837L44.0076 38.0356L40.6166 39.5866C40.6166 39.5866 45.594 37.6419 48.0691 35.4027C50.7994 32.9326 52.211 31.0755 53.2989 27.558C54.4304 23.8996 54.3449 21.2822 54.3449 18.6673C54.3449 16.0524 53.6911 15.268 52.5144 14.0913C51.3377 12.9146 44.8004 12.9146 44.8004 12.9146C44.8004 12.9146 39.9193 12.1325 39.7014 13.5683C39.6335 14.0153 39.9075 14.4843 40.2447 14.8757M47.0231 22.8512V20.7593M25.0579 23.6352C25.0579 23.6352 27.0785 25.871 28.7188 25.7271C29.8798 25.6253 31.3337 24.2889 31.3337 24.2889M31.3337 24.2889C31.3337 24.2889 32.6098 26.4491 33.9486 26.5116C35.3666 26.5777 36.825 24.2889 36.825 24.2889M31.3337 24.2889L29.3725 18.6673M36.825 24.2889C36.825 24.2889 39.3197 25.7014 40.6166 24.9426M36.825 24.2889L34.9946 15.7909M40.6166 24.9426C41.4722 24.4421 41.9241 23.9303 42.0548 22.8512C42.1856 21.7721 40.2447 14.8757 40.2447 14.8757M40.6166 24.9426C40.6166 24.9426 37.5225 27.3945 36.825 29.6495C36.2667 31.4543 36.825 34.487 36.825 34.487M40.6166 24.9426L47.0231 20.7593M40.2447 14.8757C40.6999 15.4041 41.2703 15.7909 41.2703 15.7909L47.0231 18.6673V20.7593" stroke="#343434" stroke-linecap="round" stroke-linejoin="round"/>
<path d="M22.1816 38.9336L24.1428 41.1563" stroke="#343434" stroke-linecap="round" stroke-linejoin="round"/>
<path d="M27.1497 64.6895L26.3652 68.2196" stroke="#343434" stroke-linecap="round" stroke-linejoin="round"/>
<path d="M18.128 61.6827L14.8594 60.6367" stroke="#343434" stroke-linecap="round" stroke-linejoin="round"/>
<path d="M54.7373 51.2244L55.391 48.7402" stroke="#343434" stroke-linecap="round" stroke-linejoin="round"/>
<path d="M54.7373 45.5991C54.7373 45.5991 56.2762 42.8023 58.0059 42.069M58.0059 42.069L58.6597 38.0159M58.0059 42.069C59.4912 41.4393 60.6836 42.5158 62.1114 42.2173M66.1121 36.0547C66.1121 36.0547 65.6529 38.2754 64.5963 40.0619M62.1114 42.2173C62.2653 42.1851 62.422 42.1369 62.582 42.069C63.4096 41.7174 64.0755 40.9424 64.5963 40.0619M62.1114 42.2173L66.1121 44.2916M64.5963 40.0619L62.582 36.9699" stroke="#343434" stroke-linecap="round" stroke-linejoin="round"/>
</svg>
