<svg width="73" height="73" viewBox="0 0 73 73" fill="none" xmlns="http://www.w3.org/2000/svg">
<path d="M43.9541 26.0039C45.5549 26.0039 46.8525 24.7062 46.8525 23.1055C46.8525 21.5047 45.5549 20.207 43.9541 20.207C42.3533 20.207 41.0557 21.5047 41.0557 23.1055C41.0557 24.7062 42.3533 26.0039 43.9541 26.0039Z" stroke="#343434"/>
<path d="M28.3604 26.0039C29.9611 26.0039 31.2588 24.7062 31.2588 23.1055C31.2588 21.5047 29.9611 20.207 28.3604 20.207C26.7596 20.207 25.4619 21.5047 25.4619 23.1055C25.4619 24.7062 26.7596 26.0039 28.3604 26.0039Z" stroke="#343434"/>
<path d="M46.4385 27.0039H41.4697C40.592 27.0065 39.751 27.3563 39.1303 27.977C38.5096 28.5976 38.1598 29.4387 38.1572 30.3164V35.8814C38.1572 36.443 38.5935 36.9207 39.1546 36.9409C39.2936 36.946 39.4323 36.923 39.5622 36.8733C39.6922 36.8235 39.8108 36.7481 39.9109 36.6516C40.0111 36.555 40.0907 36.4392 40.1451 36.3112C40.1995 36.1831 40.2276 36.0454 40.2275 35.9062V30.7444C40.2262 30.6376 40.2653 30.5342 40.337 30.4551C40.4087 30.3759 40.5077 30.3267 40.6142 30.3174C40.6708 30.3137 40.7276 30.3216 40.7811 30.3407C40.8345 30.3598 40.8835 30.3897 40.9249 30.4286C40.9663 30.4674 40.9992 30.5143 41.0217 30.5664C41.0442 30.6186 41.0558 30.6747 41.0557 30.7315V45.6885C41.0557 46.0042 41.1811 46.307 41.4043 46.5302C41.6276 46.7535 41.9304 46.8789 42.2461 46.8789C42.5618 46.8789 42.8646 46.7535 43.0879 46.5302C43.3111 46.307 43.4365 46.0042 43.4365 45.6885V38.3047C43.4347 38.171 43.4834 38.0416 43.573 37.9424C43.6625 37.8431 43.7863 37.7814 43.9194 37.7695C43.9903 37.7648 44.0613 37.7746 44.1282 37.7985C44.195 37.8224 44.2562 37.8598 44.308 37.9083C44.3598 37.9568 44.4011 38.0155 44.4292 38.0807C44.4574 38.1459 44.4718 38.2161 44.4717 38.2871V45.6885C44.4717 46.0042 44.5971 46.307 44.8203 46.5302C45.0436 46.7535 45.3464 46.8789 45.6621 46.8789C45.9778 46.8789 46.2806 46.7535 46.5039 46.5302C46.7271 46.307 46.8525 46.0042 46.8525 45.6885V30.7444C46.8512 30.6376 46.8903 30.5342 46.962 30.4551C47.0337 30.3759 47.1327 30.3267 47.2392 30.3174C47.2958 30.3137 47.3526 30.3216 47.4061 30.3407C47.4595 30.3598 47.5085 30.3897 47.5499 30.4286C47.5913 30.4674 47.6242 30.5143 47.6467 30.5664C47.6692 30.6186 47.6808 30.6747 47.6807 30.7315V35.8824C47.6807 36.444 48.117 36.9217 48.678 36.9419C48.8172 36.947 48.9559 36.924 49.0859 36.8742C49.2159 36.8244 49.3346 36.7489 49.4347 36.6522C49.5349 36.5556 49.6145 36.4397 49.6689 36.3115C49.7232 36.1833 49.7511 36.0455 49.751 35.9062V30.3164C49.7484 29.4387 49.3986 28.5976 48.7779 27.977C48.1572 27.3563 47.3162 27.0065 46.4385 27.0039Z" stroke="#343434"/>
<path d="M30.8447 27.0039H25.876C24.9982 27.0065 24.1572 27.3563 23.5366 27.977C22.9159 28.5976 22.5661 29.4387 22.5635 30.3164V35.8814C22.5635 36.443 22.9998 36.9207 23.5608 36.9409C23.6999 36.946 23.8385 36.923 23.9685 36.8733C24.0984 36.8235 24.217 36.7481 24.3172 36.6516C24.4173 36.555 24.497 36.4392 24.5514 36.3112C24.6058 36.1831 24.6338 36.0454 24.6338 35.9062V30.7444C24.6325 30.6376 24.6716 30.5342 24.7433 30.4551C24.815 30.3759 24.914 30.3267 25.0204 30.3174C25.0771 30.3137 25.1339 30.3216 25.1873 30.3407C25.2408 30.3598 25.2897 30.3897 25.3311 30.4286C25.3725 30.4674 25.4055 30.5143 25.428 30.5664C25.4505 30.6186 25.462 30.6747 25.4619 30.7315V45.6885C25.4619 46.0042 25.5873 46.307 25.8106 46.5302C26.0338 46.7535 26.3366 46.8789 26.6523 46.8789C26.9681 46.8789 27.2709 46.7535 27.4941 46.5302C27.7174 46.307 27.8428 46.0042 27.8428 45.6885V38.3047C27.8409 38.171 27.8897 38.0416 27.9792 37.9424C28.0688 37.8431 28.1925 37.7814 28.3257 37.7695C28.3965 37.7648 28.4676 37.7746 28.5344 37.7985C28.6013 37.8224 28.6625 37.8598 28.7143 37.9083C28.7661 37.9568 28.8073 38.0155 28.8355 38.0807C28.8636 38.1459 28.8781 38.2161 28.8779 38.2871V45.6885C28.8779 46.0042 29.0033 46.307 29.2266 46.5302C29.4498 46.7535 29.7526 46.8789 30.0684 46.8789C30.3841 46.8789 30.6869 46.7535 30.9101 46.5302C31.1334 46.307 31.2588 46.0042 31.2588 45.6885V30.7444C31.2575 30.6376 31.2966 30.5342 31.3683 30.4551C31.44 30.3759 31.539 30.3267 31.6454 30.3174C31.7021 30.3137 31.7589 30.3216 31.8123 30.3407C31.8658 30.3598 31.9147 30.3897 31.9561 30.4286C31.9975 30.4674 32.0305 30.5143 32.053 30.5664C32.0755 30.6186 32.087 30.6747 32.0869 30.7315V35.8824C32.0869 36.444 32.5232 36.9217 33.0843 36.9419C33.2234 36.947 33.3621 36.924 33.4922 36.8742C33.6222 36.8244 33.7408 36.7489 33.841 36.6522C33.9412 36.5556 34.0208 36.4397 34.0751 36.3115C34.1295 36.1833 34.1574 36.0455 34.1572 35.9062V30.3164C34.1546 29.4387 33.8048 28.5976 33.1842 27.977C32.5635 27.3563 31.7225 27.0065 30.8447 27.0039Z" stroke="#343434"/>
<path d="M24.1494 34.3711H19.1807C18.3029 34.3737 17.4619 34.7235 16.8412 35.3442C16.2206 35.9648 15.8708 36.8059 15.8682 37.6836V43.2486C15.8682 43.8102 16.3045 44.2879 16.8655 44.3081C17.0046 44.3132 17.1432 44.2902 17.2732 44.2404C17.4031 44.1907 17.5217 44.1153 17.6219 44.0188C17.722 43.9222 17.8017 43.8064 17.8561 43.6783C17.9105 43.5503 17.9385 43.4126 17.9385 43.2734V38.1116C17.9372 38.0048 17.9763 37.9014 18.048 37.8222C18.1197 37.7431 18.2187 37.6939 18.3251 37.6846C18.3817 37.6809 18.4386 37.6888 18.492 37.7079C18.5454 37.727 18.5944 37.7569 18.6358 37.7958C18.6772 37.8346 18.7102 37.8815 18.7327 37.9336C18.7552 37.9857 18.7667 38.0419 18.7666 38.0987V53.0557C18.7666 53.3714 18.892 53.6742 19.1153 53.8974C19.3385 54.1207 19.6413 54.2461 19.957 54.2461C20.2728 54.2461 20.5755 54.1207 20.7988 53.8974C21.022 53.6742 21.1475 53.3714 21.1475 53.0557V45.6719C21.1456 45.5382 21.1944 45.4088 21.2839 45.3096C21.3735 45.2103 21.4972 45.1486 21.6304 45.1367C21.7012 45.132 21.7722 45.1418 21.8391 45.1657C21.9059 45.1896 21.9672 45.2269 22.019 45.2755C22.0708 45.324 22.112 45.3827 22.1402 45.4479C22.1683 45.513 22.1828 45.5833 22.1826 45.6543V53.0557C22.1826 53.3714 22.308 53.6742 22.5313 53.8974C22.7545 54.1207 23.0573 54.2461 23.373 54.2461C23.6888 54.2461 23.9916 54.1207 24.2148 53.8974C24.4381 53.6742 24.5635 53.3714 24.5635 53.0557V38.1116C24.5622 38.0048 24.6013 37.9014 24.673 37.8222C24.7447 37.7431 24.8437 37.6939 24.9501 37.6846C25.0067 37.6809 25.0636 37.6888 25.117 37.7079C25.1704 37.727 25.2194 37.7569 25.2608 37.7958C25.3022 37.8346 25.3352 37.8815 25.3577 37.9336C25.3802 37.9857 25.3917 38.0419 25.3916 38.0987V43.2496C25.3916 43.8112 25.8279 44.2889 26.389 44.3091C26.5281 44.3142 26.6668 44.2912 26.7968 44.2414C26.9269 44.1916 27.0455 44.1161 27.1457 44.0194C27.2458 43.9227 27.3255 43.8068 27.3798 43.6787C27.4342 43.5505 27.4621 43.4127 27.4619 43.2734V37.6836C27.4593 36.8059 27.1095 35.9648 26.4888 35.3442C25.8682 34.7235 25.0271 34.3737 24.1494 34.3711Z" fill="#F4F4F4" stroke="#343434"/>
<path d="M21.665 33.543C23.2658 33.543 24.5635 32.2453 24.5635 30.6445C24.5635 29.0438 23.2658 27.7461 21.665 27.7461C20.0643 27.7461 18.7666 29.0438 18.7666 30.6445C18.7666 32.2453 20.0643 33.543 21.665 33.543Z" fill="#F4F4F4" stroke="#343434"/>
<path d="M36.1572 33.543C37.758 33.543 39.0557 32.2453 39.0557 30.6445C39.0557 29.0438 37.758 27.7461 36.1572 27.7461C34.5565 27.7461 33.2588 29.0438 33.2588 30.6445C33.2588 32.2453 34.5565 33.543 36.1572 33.543Z" fill="#F4F4F4" stroke="#343434"/>
<path d="M50.6494 33.543C52.2502 33.543 53.5479 32.2453 53.5479 30.6445C53.5479 29.0438 52.2502 27.7461 50.6494 27.7461C49.0487 27.7461 47.751 29.0438 47.751 30.6445C47.751 32.2453 49.0487 33.543 50.6494 33.543Z" fill="#F4F4F4" stroke="#343434"/>
<path d="M38.6416 34.3711H33.6729C32.7951 34.3737 31.9541 34.7235 31.3334 35.3442C30.7128 35.9648 30.3629 36.8059 30.3604 37.6836V43.2486C30.3604 43.8102 30.7967 44.2879 31.3577 44.3081C31.4968 44.3132 31.6354 44.2902 31.7654 44.2404C31.8953 44.1907 32.0139 44.1153 32.1141 44.0188C32.2142 43.9222 32.2939 43.8064 32.3483 43.6783C32.4027 43.5503 32.4307 43.4126 32.4307 43.2734V38.1116C32.4293 38.0048 32.4685 37.9014 32.5402 37.8222C32.6119 37.7431 32.7109 37.6939 32.8173 37.6846C32.8739 37.6809 32.9307 37.6888 32.9842 37.7079C33.0376 37.727 33.0866 37.7569 33.128 37.7958C33.1694 37.8346 33.2024 37.8815 33.2249 37.9336C33.2474 37.9857 33.2589 38.0419 33.2588 38.0987V53.0557C33.2588 53.3714 33.3842 53.6742 33.6075 53.8974C33.8307 54.1207 34.1335 54.2461 34.4492 54.2461C34.7649 54.2461 35.0677 54.1207 35.291 53.8974C35.5142 53.6742 35.6396 53.3714 35.6396 53.0557V45.6719C35.6378 45.5382 35.6866 45.4088 35.7761 45.3096C35.8657 45.2103 35.9894 45.1486 36.1225 45.1367C36.1934 45.132 36.2644 45.1418 36.3313 45.1657C36.3981 45.1896 36.4594 45.2269 36.5112 45.2755C36.563 45.324 36.6042 45.3827 36.6324 45.4479C36.6605 45.513 36.675 45.5833 36.6748 45.6543V53.0557C36.6748 53.3714 36.8002 53.6742 37.0235 53.8974C37.2467 54.1207 37.5495 54.2461 37.8652 54.2461C38.181 54.2461 38.4837 54.1207 38.707 53.8974C38.9302 53.6742 39.0557 53.3714 39.0557 53.0557V38.1116C39.0543 38.0048 39.0935 37.9014 39.1652 37.8222C39.2369 37.7431 39.3359 37.6939 39.4423 37.6846C39.4989 37.6809 39.5557 37.6888 39.6092 37.7079C39.6626 37.727 39.7116 37.7569 39.753 37.7958C39.7944 37.8346 39.8274 37.8815 39.8499 37.9336C39.8724 37.9857 39.8839 38.0419 39.8838 38.0987V43.2496C39.8838 43.8112 40.3201 44.2889 40.8812 44.3091C41.0203 44.3142 41.159 44.2912 41.289 44.2414C41.4191 44.1916 41.5377 44.1161 41.6379 44.0194C41.738 43.9227 41.8177 43.8068 41.872 43.6787C41.9263 43.5505 41.9543 43.4127 41.9541 43.2734V37.6836C41.9515 36.8059 41.6017 35.9648 40.981 35.3442C40.3604 34.7235 39.5193 34.3737 38.6416 34.3711Z" fill="#F4F4F4" stroke="#343434"/>
<path d="M53.1338 34.3711H48.165C47.2873 34.3737 46.4463 34.7235 45.8256 35.3442C45.205 35.9648 44.8551 36.8059 44.8525 37.6836V43.2486C44.8525 43.8102 45.2889 44.2879 45.8499 44.3081C45.989 44.3132 46.1276 44.2902 46.2575 44.2404C46.3875 44.1907 46.5061 44.1153 46.6062 44.0188C46.7064 43.9222 46.7861 43.8064 46.8405 43.6783C46.8948 43.5503 46.9229 43.4126 46.9229 43.2734V38.1116C46.9215 38.0048 46.9607 37.9014 47.0324 37.8222C47.1041 37.7431 47.2031 37.6939 47.3095 37.6846C47.3661 37.6809 47.4229 37.6888 47.4764 37.7079C47.5298 37.727 47.5788 37.7569 47.6202 37.7958C47.6616 37.8346 47.6945 37.8815 47.7171 37.9336C47.7396 37.9857 47.7511 38.0419 47.751 38.0987V53.0557C47.751 53.3714 47.8764 53.6742 48.0996 53.8974C48.3229 54.1207 48.6257 54.2461 48.9414 54.2461C49.2571 54.2461 49.5599 54.1207 49.7832 53.8974C50.0064 53.6742 50.1318 53.3714 50.1318 53.0557V45.6719C50.13 45.5382 50.1787 45.4088 50.2683 45.3096C50.3578 45.2103 50.4816 45.1486 50.6147 45.1367C50.6856 45.132 50.7566 45.1418 50.8235 45.1657C50.8903 45.1896 50.9516 45.2269 51.0033 45.2755C51.0551 45.324 51.0964 45.3827 51.1246 45.4479C51.1527 45.513 51.1672 45.5833 51.167 45.6543V53.0557C51.167 53.3714 51.2924 53.6742 51.5157 53.8974C51.7389 54.1207 52.0417 54.2461 52.3574 54.2461C52.6731 54.2461 52.9759 54.1207 53.1992 53.8974C53.4224 53.6742 53.5479 53.3714 53.5479 53.0557V38.1116C53.5465 38.0048 53.5857 37.9014 53.6574 37.8222C53.7291 37.7431 53.8281 37.6939 53.9345 37.6846C53.9911 37.6809 54.0479 37.6888 54.1014 37.7079C54.1548 37.727 54.2038 37.7569 54.2452 37.7958C54.2866 37.8346 54.3195 37.8815 54.3421 37.9336C54.3646 37.9857 54.3761 38.0419 54.376 38.0987V43.2496C54.376 43.8112 54.8123 44.2889 55.3733 44.3091C55.5125 44.3142 55.6512 44.2912 55.7812 44.2414C55.9112 44.1916 56.0299 44.1161 56.1301 44.0194C56.2302 43.9227 56.3099 43.8068 56.3642 43.6787C56.4185 43.5505 56.4465 43.4127 56.4463 43.2734V37.6836C56.4437 36.8059 56.0939 35.9648 55.4732 35.3442C54.8526 34.7235 54.0115 34.3737 53.1338 34.3711Z" fill="#F4F4F4" stroke="#343434"/>
<path d="M14.9759 14.899L36.7663 6.37755L58.2 15.7601L66.7214 37.5505L57.3389 58.9842L35.5485 67.5057L14.1148 58.1231L5.5933 36.3327L14.9759 14.899Z" stroke="#343434"/>
<path d="M66.7905 37.3973L66.7903 37.3979L66.7902 37.3983L66.7901 37.3985L66.7228 37.5929L66.8124 37.7777L66.8126 37.778L66.8128 37.7785L66.8131 37.7792L66.8132 37.7794L66.8192 37.7925C66.8251 37.8056 66.8346 37.8272 66.847 37.8572C66.8719 37.9172 66.9085 38.0107 66.9513 38.1365C67.0371 38.388 67.1478 38.7682 67.2401 39.2668C67.4246 40.2634 67.5359 41.7355 67.2242 43.6027C66.6019 47.33 64.2837 52.6877 57.3769 59.0052C50.4616 65.3304 45.0055 67.4425 41.3229 67.9985C39.4799 68.2767 38.0711 68.1669 37.1335 67.9932C36.6643 67.9063 36.3121 67.8032 36.0816 67.724C35.9664 67.6845 35.8816 67.6509 35.8278 67.6283C35.8009 67.617 35.7818 67.6084 35.7705 67.6032L35.7602 67.5985L35.7595 67.5981L35.7595 67.5981L35.7589 67.5978L35.7584 67.5976L35.5195 67.4792L35.2893 67.6128L35.2886 67.6132L35.2886 67.6132L35.288 67.6136L35.2872 67.614L35.2788 67.6185C35.2686 67.624 35.2508 67.6333 35.2256 67.6457C35.1753 67.6705 35.0952 67.7076 34.986 67.7515C34.7675 67.8392 34.4319 67.9542 33.9828 68.0519C33.0859 68.2471 31.7295 68.375 29.9389 68.0751C26.3595 67.4754 20.9966 65.1568 14.0809 58.1467C7.16928 51.1406 5.07155 45.695 4.66098 42.0576C4.45547 40.2368 4.67063 38.854 4.92966 37.9365C5.05935 37.4771 5.20042 37.1331 5.30627 36.9082C5.3592 36.7957 5.40331 36.7131 5.43277 36.6607C5.44751 36.6345 5.45857 36.6159 5.46524 36.605L5.47177 36.5943L5.47184 36.5943L5.47213 36.5938L5.4725 36.5932L5.59386 36.4074L5.53554 36.1919L5.53549 36.1917L5.53547 36.1916L5.53533 36.1911L5.53464 36.1884L5.5301 36.1704C5.52588 36.1534 5.51937 36.1263 5.51112 36.0895C5.49461 36.0158 5.47116 35.9032 5.44515 35.7541C5.39312 35.4561 5.33093 35.0125 5.29371 34.4433C5.21926 33.3049 5.24471 31.6651 5.6505 29.6822C6.46052 25.7238 8.79235 20.366 14.9344 14.8814C21.1659 9.31695 24.3057 7.18341 27.0059 6.41698C28.3452 6.03681 29.5994 5.98724 31.1195 6.05005C31.6671 6.07268 32.2607 6.11094 32.9072 6.15261C34.0243 6.22462 35.2993 6.30679 36.7675 6.33604C38.635 6.37325 40.1626 6.2671 41.4787 6.17565C41.8192 6.15198 42.1456 6.1293 42.4601 6.11035C43.9971 6.01768 45.2463 6.01389 46.5633 6.37541C49.2093 7.10173 52.251 9.33547 58.2254 15.7263C64.1315 22.0439 66.2504 27.5005 66.9089 31.344C67.2386 33.2685 67.2036 34.7968 67.089 35.8362C67.0317 36.356 66.9545 36.7539 66.8929 37.018C66.8621 37.1501 66.8352 37.2487 66.8166 37.3124C66.8073 37.3443 66.8002 37.3674 66.7956 37.3816L66.7909 37.3962L66.7905 37.3973Z" stroke="#343434"/>
<path d="M34.4072 64.6211V71.1211L36.1572 64.6211V71.1211L37.9072 64.6211V71.1211" stroke="#343434" stroke-linecap="round" stroke-linejoin="round"/>
<path d="M34.4072 1.9668V8.4668L36.1572 1.9668V8.4668L37.9072 1.9668V8.4668" stroke="#343434" stroke-linecap="round" stroke-linejoin="round"/>
<path d="M14.3281 54.2891L9.54921 58.695L15.5143 55.5757L10.7354 59.9816L16.7005 56.8623L11.9216 61.2682" stroke="#343434" stroke-linecap="round" stroke-linejoin="round"/>
<path d="M60.3926 11.8203L55.6137 16.2262L61.5788 13.1069L56.7999 17.5128L62.765 14.3936L57.9861 18.7995" stroke="#343434" stroke-linecap="round" stroke-linejoin="round"/>
<path d="M8.15918 33.8076L1.6632 33.579L8.09764 35.5565L1.60166 35.3279L8.03609 37.3055L1.54011 37.0769" stroke="#343434" stroke-linecap="round" stroke-linejoin="round"/>
<path d="M70.7744 36.0107L64.2784 35.7822L70.7129 37.7597L64.2169 37.5311L70.6513 39.5086L64.1553 39.28" stroke="#343434" stroke-linecap="round" stroke-linejoin="round"/>
<path d="M18.0098 15.0498L13.5158 10.3536L16.7454 16.2597L12.2514 11.5635L15.481 17.4696L10.9871 12.7734" stroke="#343434" stroke-linecap="round" stroke-linejoin="round"/>
<path d="M61.3271 60.3164L56.8332 55.6202L60.0628 61.5263L55.5688 56.8301L58.7984 62.7362L54.3045 58.04" stroke="#343434" stroke-linecap="round" stroke-linejoin="round"/>
</svg>
