<svg width="73" height="73" viewBox="0 0 73 73" fill="none" xmlns="http://www.w3.org/2000/svg">
<path d="M39.4357 40.2258L38.6847 39.5422C36.0176 37.1237 34.2568 35.5234 34.2568 33.571C34.2568 31.9708 35.5101 30.7227 37.1052 30.7227C38.0063 30.7227 38.8712 31.1421 39.4357 31.7999C40.0001 31.1421 40.865 30.7227 41.7661 30.7227C43.3612 30.7227 44.6145 31.9708 44.6145 33.571C44.6145 35.5234 42.8537 37.1237 40.1866 39.5422L39.4357 40.2258Z" fill="#FFD249"/>
<path d="M57.1912 52.9159L56.7203 52.4872C55.0476 50.9704 53.9434 49.9668 53.9434 48.7424C53.9434 47.7388 54.7293 46.9561 55.7297 46.9561C56.2948 46.9561 56.8372 47.2191 57.1912 47.6316C57.5452 47.2191 58.0876 46.9561 58.6528 46.9561C59.6531 46.9561 60.4391 47.7388 60.4391 48.7424C60.4391 49.9668 59.3348 50.9704 57.6622 52.4872L57.1912 52.9159Z" fill="#FFD249"/>
<path d="M18.5405 49.5079L17.9717 48.9901C15.9511 47.1579 14.6172 45.9455 14.6172 44.4664C14.6172 43.2541 15.5666 42.3086 16.775 42.3086C17.4577 42.3086 18.1129 42.6264 18.5405 43.1247C18.9682 42.6264 19.6234 42.3086 20.306 42.3086C21.5144 42.3086 22.4639 43.2541 22.4639 44.4664C22.4639 45.9455 21.13 47.1579 19.1094 48.9901L18.5405 49.5079Z" fill="#FFD249"/>
<path d="M35.4952 63.2264C35.4952 63.2264 36.568 47.3498 35.4952 45.6335C34.4225 43.9171 32.7065 41.6645 31.2051 38.5536C29.7038 35.4426 27.7727 26.3243 28.7379 24.3934C29.703 22.4625 31.2051 26.1098 31.2051 26.1098L32.9207 31.2589V13.8804C32.9207 13.8804 32.9207 12.164 34.4733 12.164C36.0259 12.164 36.568 13.8804 36.568 13.8804M36.568 13.8804V25.6805M36.568 13.8804C36.568 13.8804 36.2462 9.69827 38.0707 9.3751C39.8952 9.05192 40.4298 12.164 40.4298 12.164M40.4298 12.164C40.4298 12.164 41.3493 10.555 42.3617 10.555C43.9708 10.555 44.5063 13.0223 44.5063 13.0223V16.4549M40.4298 12.164V25.6805M44.5063 16.4549C44.5063 16.4549 46.0723 15.987 46.8663 16.4549C47.8047 17.0079 47.9294 19.6695 47.9294 19.6695C47.9294 19.6695 47.9294 30.508 47.9294 35.979C47.9294 41.45 46.1158 43.4385 45.7945 45.6335C44.7506 52.7631 45.1508 63.2264 45.1508 63.2264M44.5063 16.4549V26.7532" stroke="#343434"/>
<path d="M54.637 63.2266C54.637 63.2266 55.3086 55.1406 54.637 54.2665C53.9654 53.3923 52.8911 52.2451 51.9512 50.6607C51.0112 49.0763 49.8023 44.4323 50.4065 43.4489C51.0107 42.4655 51.9512 44.3231 51.9512 44.3231L53.0252 46.9455V38.0946C53.0252 38.0946 53.0252 37.2204 53.9972 37.2204C54.9692 37.2204 55.3086 38.0946 55.3086 38.0946M55.3086 38.0946V44.1044M55.3086 38.0946C55.3086 38.0946 55.1071 35.9647 56.2493 35.8001C57.3916 35.6355 57.7263 37.2204 57.7263 37.2204M57.7263 37.2204C57.7263 37.2204 58.3019 36.401 58.9357 36.401C59.9431 36.401 60.2784 37.6576 60.2784 37.6576V39.4058M57.7263 37.2204V44.1044M60.2784 39.4058C60.2784 39.4058 61.2587 39.1675 61.7559 39.4058C62.3433 39.6875 62.4214 41.043 62.4214 41.043C62.4214 41.043 62.4214 46.5631 62.4214 49.3495C62.4214 52.1358 61.286 53.1486 61.0848 54.2665C60.4313 57.8976 60.6819 63.2266 60.6819 63.2266M60.2784 39.4058V44.6508" stroke="#343434"/>
<path d="M15.2902 63.2263C15.2902 63.2263 16.1216 53.2155 15.2902 52.1332C14.4587 51.0509 13.1286 49.6306 11.9649 47.669C10.8013 45.7074 9.30452 39.9579 10.0526 38.7404C10.8007 37.5229 11.9649 39.8227 11.9649 39.8227L13.2946 43.0694V32.1115C13.2946 32.1115 13.2946 31.0292 14.498 31.0292C15.7014 31.0292 16.1216 32.1115 16.1216 32.1115M16.1216 32.1115V39.552M16.1216 32.1115C16.1216 32.1115 15.8722 29.4745 17.2864 29.2707C18.7005 29.0669 19.1149 31.0292 19.1149 31.0292M19.1149 31.0292C19.1149 31.0292 19.8276 30.0147 20.6122 30.0147C21.8595 30.0147 22.2745 31.5705 22.2745 31.5705V33.7348M19.1149 31.0292V39.552M22.2745 33.7348C22.2745 33.7348 23.4883 33.4398 24.1037 33.7348C24.8311 34.0835 24.9278 35.7617 24.9278 35.7617C24.9278 35.7617 24.9278 42.5959 24.9278 46.0456C24.9278 49.4953 23.5221 50.7492 23.273 52.1332C22.4639 56.6287 22.7741 63.2263 22.7741 63.2263M22.2745 33.7348V40.2284" stroke="#343434"/>
</svg>
