<svg width="104" height="106" viewBox="0 0 104 106" fill="none" xmlns="http://www.w3.org/2000/svg">
<g clip-path="url(#clip0_331_9584)">
<path fill-rule="evenodd" clip-rule="evenodd" d="M62.2861 26.1557C62.2861 15.9269 70.5783 7.63477 80.8071 7.63477C91.036 7.63477 99.3281 15.9269 99.3281 26.1557V85.138L91.4633 80.4616V26.2831C91.4633 20.3709 86.6705 15.5781 80.7583 15.5781C74.8461 15.5781 70.0534 20.3709 70.0534 26.2831V67.7314L62.2861 63.113V26.1557Z" fill="white"/>
<path fill-rule="evenodd" clip-rule="evenodd" d="M19.4658 76.0071V20.656L51.5807 40.1341L82.7124 19.9434L83.2952 75.605L75.3937 70.9068V36.0959L51.5807 50.5857L27.8769 36.0959V70.8907L19.4658 76.0071Z" fill="white"/>
<path fill-rule="evenodd" clip-rule="evenodd" d="M4.16113 26.1557C4.16113 15.9269 12.4533 7.63477 22.6821 7.63477C32.911 7.63477 41.2031 15.9269 41.2031 26.1557V62.7843L33.3382 67.5685V26.2831C33.3382 20.3709 28.5455 15.5781 22.6333 15.5781C16.7211 15.5781 11.9283 20.3709 11.9283 26.2831V80.592L4.16113 85.3167V26.1557Z" fill="white"/>
<path fill-rule="evenodd" clip-rule="evenodd" d="M-8.48521 98.8414L-8.5 98.8504L-8.48521 98.8747V98.8414ZM4.16145 95.8304L51.3519 67.1247L99.0753 95.5008V90.8471L52.3623 63.0718L51.3284 62.457L50.3008 63.0821L4.16145 91.1485V95.8304Z" fill="white"/>
<path fill-rule="evenodd" clip-rule="evenodd" d="M51.3226 61.29L100.075 90.2782V97.2587L51.3578 68.2915L3.16148 97.6091V90.5862L51.3226 61.29ZM51.3343 63.6239L50.8205 63.9364L5.16148 91.7106V94.0515L51.3461 65.9577L98.0754 93.7427V91.4158L51.3343 63.6239ZM-7.48518 97.0626V102.443L-9.87402 98.5155L-7.48518 97.0626Z" fill="white"/>
</g>
<defs>
<clipPath id="clip0_331_9584">
<rect width="103" height="105" fill="white" transform="translate(0.5 0.625)"/>
</clipPath>
</defs>
</svg>
