<svg width="104" height="106" viewBox="0 0 104 106" fill="none" xmlns="http://www.w3.org/2000/svg">
<g clip-path="url(#clip0_331_9767)">
<path fill-rule="evenodd" clip-rule="evenodd" d="M61.8213 26.2573C61.8213 16.0284 70.1134 7.73633 80.3423 7.73633C90.5711 7.73633 98.8632 16.0285 98.8632 26.2573V85.2395L90.9984 80.5632V26.3846C90.9984 20.4725 86.2057 15.6797 80.2935 15.6797C74.3813 15.6797 69.5885 20.4725 69.5885 26.3846V67.833L61.8213 63.2146V26.2573Z" fill="white"/>
<path fill-rule="evenodd" clip-rule="evenodd" d="M19.001 76.1087V20.7575L51.1158 40.2356L82.2476 20.0449L82.8304 75.7066L74.9289 71.0084V36.1975L51.1158 50.6873L27.412 36.1975V70.9923L19.001 76.1087Z" fill="white"/>
<path fill-rule="evenodd" clip-rule="evenodd" d="M3.69629 26.2573C3.69629 16.0284 11.9884 7.73633 22.2173 7.73633C32.4461 7.73633 40.7382 16.0285 40.7382 26.2573V62.8859L32.8734 67.67V26.3846C32.8734 20.4725 28.0806 15.6797 22.1684 15.6797C16.2563 15.6797 11.4635 20.4725 11.4635 26.3846V80.6936L3.69629 85.4183V26.2573Z" fill="white"/>
<path fill-rule="evenodd" clip-rule="evenodd" d="M-8.95005 98.9429L-8.96484 98.9519L-8.95005 98.9762V98.9429ZM3.69661 95.9319L50.8871 67.2262L98.6105 95.6023V90.9487L51.8975 63.1733L50.8636 62.5586L49.8359 63.1837L3.69661 91.25V95.9319Z" fill="white"/>
<path fill-rule="evenodd" clip-rule="evenodd" d="M50.8577 61.3916L99.6105 90.3797V97.3603L50.893 68.3931L2.69664 97.7106V90.6878L50.8577 61.3916ZM50.8695 63.7254L50.3557 64.038L4.69664 91.8121V94.1531L50.8812 66.0592L97.6105 93.8442V91.5174L50.8695 63.7254ZM-7.95002 97.1642V102.545L-10.3389 98.6171L-7.95002 97.1642Z" fill="white"/>
</g>
<defs>
<clipPath id="clip0_331_9767">
<rect width="103" height="105" fill="white" transform="translate(0.0351562 0.726562)"/>
</clipPath>
</defs>
</svg>
