<svg width="104" height="106" fill="none" xmlns="http://www.w3.org/2000/svg"><g clip-path="url(#clip0_331_9767)" fill-rule="evenodd" clip-rule="evenodd" fill="#fff"><path d="M61.821 26.257c0-10.229 8.292-18.52 18.521-18.52 10.23 0 18.521 8.292 18.521 18.52V85.24l-7.865-4.677V26.385c0-5.913-4.792-10.705-10.705-10.705-5.912 0-10.705 4.793-10.705 10.705v41.448l-7.767-4.618V26.257z"/><path d="M19.001 76.109V20.758l32.115 19.478 31.132-20.191.582 55.662-7.901-4.699v-34.81l-23.813 14.49-23.704-14.49v34.794l-8.411 5.117z"/><path d="M3.696 26.257c0-10.229 8.292-18.52 18.521-18.52 10.23 0 18.521 8.292 18.521 18.52v36.629l-7.865 4.784V26.385c0-5.913-4.792-10.705-10.705-10.705-5.912 0-10.704 4.793-10.704 10.705v54.309l-7.768 4.724v-59.16zM-8.95 98.943l-.015.009.015.024v-.033zm12.647-3.011l47.19-28.706 47.724 28.376V90.95L51.897 63.173l-1.033-.614-1.028.625L3.696 91.25v4.682z"/><path d="M50.858 61.392L99.61 90.38v6.98L50.892 68.393 2.697 97.711v-7.023l48.16-29.296zm.012 2.333l-.514.313-45.66 27.774v2.341L50.882 66.06l46.73 27.785v-2.327L50.869 63.725zm-58.82 33.44v5.38l-2.389-3.928 2.389-1.453z"/></g><defs><clipPath id="clip0_331_9767"><path fill="#fff" transform="translate(.035 .727)" d="M0 0h103v105H0z"/></clipPath></defs></svg>