<svg width="1441" height="417" viewBox="0 0 1441 417" fill="none" xmlns="http://www.w3.org/2000/svg">
<g clip-path="url(#clip0_331_9698)">
<rect width="1440" height="416" transform="translate(0.263672 0.789062)" fill="#F4F4F4"/>
<path d="M215.436 214.226L214.685 213.542C212.018 211.124 210.257 209.523 210.257 207.571C210.257 205.971 211.51 204.723 213.105 204.723C214.006 204.723 214.871 205.142 215.436 205.8C216 205.142 216.865 204.723 217.766 204.723C219.361 204.723 220.614 205.971 220.614 207.571C220.614 209.523 218.854 211.124 216.187 213.542L215.436 214.226Z" fill="#FFD249"/>
<path d="M233.191 226.916L232.72 226.487C231.048 224.97 229.943 223.967 229.943 222.742C229.943 221.739 230.729 220.956 231.73 220.956C232.295 220.956 232.837 221.219 233.191 221.632C233.545 221.219 234.088 220.956 234.653 220.956C235.653 220.956 236.439 221.739 236.439 222.742C236.439 223.967 235.335 224.97 233.662 226.487L233.191 226.916Z" fill="#FFD249"/>
<path d="M194.541 223.508L193.972 222.99C191.951 221.158 190.617 219.946 190.617 218.466C190.617 217.254 191.567 216.309 192.775 216.309C193.458 216.309 194.113 216.626 194.541 217.125C194.968 216.626 195.623 216.309 196.306 216.309C197.514 216.309 198.464 217.254 198.464 218.466C198.464 219.946 197.13 221.158 195.109 222.99L194.541 223.508Z" fill="#FFD249"/>
<path d="M211.495 237.226C211.495 237.226 212.568 221.35 211.495 219.633C210.423 217.917 208.706 215.665 207.205 212.554C205.704 209.443 203.773 200.324 204.738 198.393C205.703 196.462 207.205 200.11 207.205 200.11L208.921 205.259V187.88C208.921 187.88 208.921 186.164 210.473 186.164C212.026 186.164 212.568 187.88 212.568 187.88M212.568 187.88V199.68M212.568 187.88C212.568 187.88 212.246 183.698 214.071 183.375C215.895 183.052 216.43 186.164 216.43 186.164M216.43 186.164C216.43 186.164 217.349 184.555 218.362 184.555C219.971 184.555 220.506 187.022 220.506 187.022V190.455M216.43 186.164V199.68M220.506 190.455C220.506 190.455 222.072 189.987 222.866 190.455C223.805 191.008 223.929 193.669 223.929 193.669C223.929 193.669 223.929 204.508 223.929 209.979C223.929 215.45 222.116 217.438 221.794 219.633C220.751 226.763 221.151 237.226 221.151 237.226M220.506 190.455V200.753" stroke="#343434"/>
<path d="M230.637 237.227C230.637 237.227 231.309 229.141 230.637 228.266C229.965 227.392 228.891 226.245 227.951 224.661C227.011 223.076 225.802 218.432 226.407 217.449C227.011 216.465 227.951 218.323 227.951 218.323L229.025 220.946V212.095C229.025 212.095 229.025 211.22 229.997 211.22C230.969 211.22 231.309 212.095 231.309 212.095M231.309 212.095V218.104M231.309 212.095C231.309 212.095 231.107 209.965 232.249 209.8C233.392 209.635 233.726 211.22 233.726 211.22M233.726 211.22C233.726 211.22 234.302 210.401 234.936 210.401C235.943 210.401 236.278 211.658 236.278 211.658V213.406M233.726 211.22V218.104M236.278 213.406C236.278 213.406 237.259 213.168 237.756 213.406C238.343 213.687 238.421 215.043 238.421 215.043C238.421 215.043 238.421 220.563 238.421 223.349C238.421 226.136 237.286 227.149 237.085 228.266C236.431 231.898 236.682 237.227 236.682 237.227M236.278 213.406V218.651" stroke="#343434"/>
<path d="M191.29 237.226C191.29 237.226 192.122 227.215 191.29 226.133C190.459 225.051 189.129 223.631 187.965 221.669C186.801 219.707 185.305 213.958 186.053 212.74C186.801 211.523 187.965 213.823 187.965 213.823L189.295 217.069V206.111C189.295 206.111 189.295 205.029 190.498 205.029C191.701 205.029 192.122 206.111 192.122 206.111M192.122 206.111V213.552M192.122 206.111C192.122 206.111 191.872 203.474 193.286 203.271C194.701 203.067 195.115 205.029 195.115 205.029M195.115 205.029C195.115 205.029 195.828 204.015 196.612 204.015C197.859 204.015 198.275 205.57 198.275 205.57V207.735M195.115 205.029V213.552M198.275 207.735C198.275 207.735 199.488 207.44 200.104 207.735C200.831 208.084 200.928 209.762 200.928 209.762C200.928 209.762 200.928 216.596 200.928 220.046C200.928 223.495 199.522 224.749 199.273 226.133C198.464 230.629 198.774 237.226 198.774 237.226M198.275 207.735V214.228" stroke="#343434"/>
<path d="M-56.9365 210.289H150.137C150.137 222.552 153.773 234.539 160.586 244.734C167.398 254.93 177.081 262.877 188.41 267.57C199.739 272.262 212.205 273.49 224.232 271.098C236.259 268.705 247.307 262.801 255.977 254.13C264.648 245.459 270.553 234.411 272.945 222.385C275.338 210.358 274.11 197.892 269.417 186.563C264.725 175.234 256.778 165.551 246.582 158.738C236.386 151.925 224.399 148.289 212.137 148.289V104.289" stroke="#FFD249" stroke-width="4"/>
<path d="M605 210H812.073C812.073 222.262 815.709 234.249 822.522 244.445C829.335 254.641 839.018 262.588 850.347 267.281C861.676 271.973 874.142 273.201 886.169 270.809C898.196 268.416 909.243 262.511 917.914 253.841C926.585 245.17 932.49 234.122 934.882 222.096C937.274 210.069 936.046 197.603 931.354 186.274C926.661 174.945 918.714 165.262 908.519 158.449C898.323 151.636 886.336 148 874.073 148V104" stroke="#FFD249" stroke-width="4"/>
<path d="M936.283 209.555H1143.36C1143.36 197.292 1146.99 185.305 1153.81 175.109C1160.62 164.913 1170.3 156.967 1181.63 152.274C1192.96 147.582 1205.43 146.354 1217.45 148.746C1229.48 151.138 1240.53 157.043 1249.2 165.714C1257.87 174.385 1263.77 185.432 1266.17 197.459C1268.56 209.486 1267.33 221.952 1262.64 233.281C1257.94 244.61 1250 254.293 1239.8 261.106C1229.61 267.918 1217.62 271.555 1205.36 271.555V315.555" stroke="#FFD249" stroke-width="4"/>
<path d="M1548.63 206.555H1267.36" stroke="#FFD249" stroke-width="4"/>
<path d="M274.137 209.555H481.21C481.21 197.292 484.846 185.305 491.659 175.109C498.471 164.913 508.155 156.967 519.484 152.274C530.813 147.582 543.279 146.354 555.306 148.746C567.332 151.138 578.38 157.043 587.051 165.714C595.721 174.385 601.626 185.432 604.019 197.459C606.411 209.486 605.183 221.952 600.49 233.281C595.798 244.61 587.851 254.293 577.655 261.106C567.459 267.918 555.472 271.555 543.21 271.555V315.555" stroke="#FFD249" stroke-width="4"/>
<rect x="520.729" y="182.477" width="40.8089" height="54" rx="1.5" stroke="#343434"/>
<path d="M527.956 192.861H555.456" stroke="#343434"/>
<path d="M527.956 201.742H555.456" stroke="#343434"/>
<path d="M527.956 210.623H555.456" stroke="#343434"/>
<path d="M527.956 219.504H555.456" stroke="#343434"/>
<path d="M527.956 228.383H555.456" stroke="#343434"/>
<circle cx="562.037" cy="219.503" r="11.4583" fill="#FFD249"/>
<path d="M557.454 218.643L561.465 224.372L566.621 214.633" stroke="#343434"/>
<path d="M883.954 200.004C885.555 200.004 886.853 198.706 886.853 197.105C886.853 195.505 885.555 194.207 883.954 194.207C882.353 194.207 881.056 195.505 881.056 197.105C881.056 198.706 882.353 200.004 883.954 200.004Z" stroke="#343434"/>
<path d="M868.36 200.004C869.961 200.004 871.259 198.706 871.259 197.105C871.259 195.505 869.961 194.207 868.36 194.207C866.76 194.207 865.462 195.505 865.462 197.105C865.462 198.706 866.76 200.004 868.36 200.004Z" stroke="#343434"/>
<path d="M886.438 201.004H881.47C880.592 201.007 879.751 201.356 879.13 201.977C878.51 202.598 878.16 203.439 878.157 204.316V209.881C878.157 210.443 878.594 210.921 879.155 210.941C879.294 210.946 879.432 210.923 879.562 210.873C879.692 210.824 879.811 210.748 879.911 210.652C880.011 210.555 880.091 210.439 880.145 210.311C880.2 210.183 880.228 210.045 880.228 209.906V204.744C880.226 204.638 880.265 204.534 880.337 204.455C880.409 204.376 880.508 204.327 880.614 204.317C880.671 204.314 880.728 204.322 880.781 204.341C880.835 204.36 880.883 204.39 880.925 204.429C880.966 204.467 880.999 204.514 881.022 204.566C881.044 204.619 881.056 204.675 881.056 204.732V219.688C881.056 220.004 881.181 220.307 881.404 220.53C881.628 220.753 881.93 220.879 882.246 220.879C882.562 220.879 882.865 220.753 883.088 220.53C883.311 220.307 883.437 220.004 883.437 219.688V212.305C883.435 212.171 883.483 212.042 883.573 211.942C883.663 211.843 883.786 211.781 883.919 211.77C883.99 211.765 884.061 211.775 884.128 211.799C884.195 211.822 884.256 211.86 884.308 211.908C884.36 211.957 884.401 212.016 884.429 212.081C884.457 212.146 884.472 212.216 884.472 212.287V219.688C884.472 220.004 884.597 220.307 884.82 220.53C885.044 220.753 885.346 220.879 885.662 220.879C885.978 220.879 886.281 220.753 886.504 220.53C886.727 220.307 886.853 220.004 886.853 219.688V204.744C886.851 204.638 886.89 204.534 886.962 204.455C887.034 204.376 887.133 204.327 887.239 204.317C887.296 204.314 887.353 204.322 887.406 204.341C887.46 204.36 887.508 204.39 887.55 204.429C887.591 204.467 887.624 204.514 887.647 204.566C887.669 204.619 887.681 204.675 887.681 204.732V209.882C887.681 210.444 888.117 210.922 888.678 210.942C888.817 210.947 888.956 210.924 889.086 210.874C889.216 210.824 889.335 210.749 889.435 210.652C889.535 210.556 889.615 210.44 889.669 210.311C889.723 210.183 889.751 210.045 889.751 209.906V204.316C889.748 203.439 889.399 202.598 888.778 201.977C888.157 201.356 887.316 201.007 886.438 201.004Z" stroke="#343434"/>
<path d="M870.845 201.004H865.876C864.998 201.007 864.157 201.356 863.537 201.977C862.916 202.598 862.566 203.439 862.563 204.316V209.881C862.563 210.443 863 210.921 863.561 210.941C863.7 210.946 863.839 210.923 863.968 210.873C864.098 210.824 864.217 210.748 864.317 210.652C864.417 210.555 864.497 210.439 864.551 210.311C864.606 210.183 864.634 210.045 864.634 209.906V204.744C864.632 204.638 864.672 204.534 864.743 204.455C864.815 204.376 864.914 204.327 865.02 204.317C865.077 204.314 865.134 204.322 865.187 204.341C865.241 204.36 865.29 204.39 865.331 204.429C865.373 204.467 865.405 204.514 865.428 204.566C865.45 204.619 865.462 204.675 865.462 204.732V219.688C865.462 220.004 865.587 220.307 865.811 220.53C866.034 220.753 866.337 220.879 866.652 220.879C866.968 220.879 867.271 220.753 867.494 220.53C867.717 220.307 867.843 220.004 867.843 219.688V212.305C867.841 212.171 867.89 212.042 867.979 211.942C868.069 211.843 868.193 211.781 868.326 211.77C868.397 211.765 868.468 211.775 868.534 211.799C868.601 211.822 868.662 211.86 868.714 211.908C868.766 211.957 868.807 212.016 868.835 212.081C868.864 212.146 868.878 212.216 868.878 212.287V219.688C868.878 220.004 869.003 220.307 869.227 220.53C869.45 220.753 869.753 220.879 870.068 220.879C870.384 220.879 870.687 220.753 870.91 220.53C871.133 220.307 871.259 220.004 871.259 219.688V204.744C871.257 204.638 871.297 204.534 871.368 204.455C871.44 204.376 871.539 204.327 871.645 204.317C871.702 204.314 871.759 204.322 871.812 204.341C871.866 204.36 871.915 204.39 871.956 204.429C871.998 204.467 872.03 204.514 872.053 204.566C872.075 204.619 872.087 204.675 872.087 204.732V209.882C872.087 210.444 872.523 210.922 873.084 210.942C873.223 210.947 873.362 210.924 873.492 210.874C873.622 210.824 873.741 210.749 873.841 210.652C873.941 210.556 874.021 210.44 874.075 210.311C874.129 210.183 874.157 210.045 874.157 209.906V204.316C874.155 203.439 873.805 202.598 873.184 201.977C872.563 201.356 871.722 201.007 870.845 201.004Z" stroke="#343434"/>
<path d="M864.149 208.371H859.181C858.303 208.374 857.462 208.724 856.841 209.344C856.221 209.965 855.871 210.806 855.868 211.684V217.249C855.868 217.81 856.304 218.288 856.866 218.308C857.005 218.313 857.143 218.29 857.273 218.24C857.403 218.191 857.522 218.115 857.622 218.019C857.722 217.922 857.802 217.806 857.856 217.678C857.91 217.55 857.938 217.413 857.938 217.273V212.112C857.937 212.005 857.976 211.901 858.048 211.822C858.12 211.743 858.219 211.694 858.325 211.685C858.382 211.681 858.439 211.689 858.492 211.708C858.545 211.727 858.594 211.757 858.636 211.796C858.677 211.835 858.71 211.882 858.733 211.934C858.755 211.986 858.767 212.042 858.767 212.099V227.056C858.767 227.371 858.892 227.674 859.115 227.897C859.339 228.121 859.641 228.246 859.957 228.246C860.273 228.246 860.576 228.121 860.799 227.897C861.022 227.674 861.147 227.371 861.147 227.056V219.672C861.146 219.538 861.194 219.409 861.284 219.31C861.373 219.21 861.497 219.149 861.63 219.137C861.701 219.132 861.772 219.142 861.839 219.166C861.906 219.19 861.967 219.227 862.019 219.275C862.071 219.324 862.112 219.383 862.14 219.448C862.168 219.513 862.183 219.583 862.183 219.654V227.056C862.183 227.371 862.308 227.674 862.531 227.897C862.755 228.121 863.057 228.246 863.373 228.246C863.689 228.246 863.992 228.121 864.215 227.897C864.438 227.674 864.563 227.371 864.563 227.056V212.112C864.562 212.005 864.601 211.901 864.673 211.822C864.745 211.743 864.844 211.694 864.95 211.685C865.007 211.681 865.064 211.689 865.117 211.708C865.17 211.727 865.219 211.757 865.261 211.796C865.302 211.835 865.335 211.882 865.358 211.934C865.38 211.986 865.392 212.042 865.392 212.099V217.25C865.392 217.811 865.828 218.289 866.389 218.309C866.528 218.314 866.667 218.291 866.797 218.241C866.927 218.192 867.046 218.116 867.146 218.019C867.246 217.923 867.325 217.807 867.38 217.679C867.434 217.55 867.462 217.413 867.462 217.273V211.684C867.459 210.806 867.109 209.965 866.489 209.344C865.868 208.724 865.027 208.374 864.149 208.371Z" fill="#F4F4F4" stroke="#343434"/>
<path d="M861.665 207.543C863.266 207.543 864.563 206.245 864.563 204.645C864.563 203.044 863.266 201.746 861.665 201.746C860.064 201.746 858.767 203.044 858.767 204.645C858.767 206.245 860.064 207.543 861.665 207.543Z" fill="#F4F4F4" stroke="#343434"/>
<path d="M876.157 207.543C877.758 207.543 879.056 206.245 879.056 204.645C879.056 203.044 877.758 201.746 876.157 201.746C874.556 201.746 873.259 203.044 873.259 204.645C873.259 206.245 874.556 207.543 876.157 207.543Z" fill="#F4F4F4" stroke="#343434"/>
<path d="M890.649 207.543C892.25 207.543 893.548 206.245 893.548 204.645C893.548 203.044 892.25 201.746 890.649 201.746C889.049 201.746 887.751 203.044 887.751 204.645C887.751 206.245 889.049 207.543 890.649 207.543Z" fill="#F4F4F4" stroke="#343434"/>
<path d="M878.642 208.371H873.673C872.795 208.374 871.954 208.724 871.333 209.344C870.713 209.965 870.363 210.806 870.36 211.684V217.249C870.36 217.81 870.797 218.288 871.358 218.308C871.497 218.313 871.635 218.29 871.765 218.24C871.895 218.191 872.014 218.115 872.114 218.019C872.214 217.922 872.294 217.806 872.348 217.678C872.403 217.55 872.431 217.413 872.431 217.273V212.112C872.429 212.005 872.468 211.901 872.54 211.822C872.612 211.743 872.711 211.694 872.817 211.685C872.874 211.681 872.931 211.689 872.984 211.708C873.038 211.727 873.087 211.757 873.128 211.796C873.169 211.835 873.202 211.882 873.225 211.934C873.247 211.986 873.259 212.042 873.259 212.099V227.056C873.259 227.371 873.384 227.674 873.607 227.897C873.831 228.121 874.133 228.246 874.449 228.246C874.765 228.246 875.068 228.121 875.291 227.897C875.514 227.674 875.64 227.371 875.64 227.056V219.672C875.638 219.538 875.687 219.409 875.776 219.31C875.866 219.21 875.989 219.149 876.123 219.137C876.193 219.132 876.264 219.142 876.331 219.166C876.398 219.19 876.459 219.227 876.511 219.275C876.563 219.324 876.604 219.383 876.632 219.448C876.661 219.513 876.675 219.583 876.675 219.654V227.056C876.675 227.371 876.8 227.674 877.023 227.897C877.247 228.121 877.55 228.246 877.865 228.246C878.181 228.246 878.484 228.121 878.707 227.897C878.93 227.674 879.056 227.371 879.056 227.056V212.112C879.054 212.005 879.093 211.901 879.165 211.822C879.237 211.743 879.336 211.694 879.442 211.685C879.499 211.681 879.556 211.689 879.609 211.708C879.663 211.727 879.712 211.757 879.753 211.796C879.794 211.835 879.827 211.882 879.85 211.934C879.872 211.986 879.884 212.042 879.884 212.099V217.25C879.884 217.811 880.32 218.289 880.881 218.309C881.02 218.314 881.159 218.291 881.289 218.241C881.419 218.192 881.538 218.116 881.638 218.019C881.738 217.923 881.818 217.807 881.872 217.679C881.926 217.55 881.954 217.413 881.954 217.273V211.684C881.952 210.806 881.602 209.965 880.981 209.344C880.36 208.724 879.519 208.374 878.642 208.371Z" fill="#F4F4F4" stroke="#343434"/>
<path d="M893.134 208.371H888.165C887.287 208.374 886.446 208.724 885.826 209.344C885.205 209.965 884.855 210.806 884.853 211.684V217.249C884.853 217.81 885.289 218.288 885.85 218.308C885.989 218.313 886.128 218.29 886.258 218.24C886.387 218.191 886.506 218.115 886.606 218.019C886.706 217.922 886.786 217.806 886.84 217.678C886.895 217.55 886.923 217.413 886.923 217.273V212.112C886.922 212.005 886.961 211.901 887.032 211.822C887.104 211.743 887.203 211.694 887.309 211.685C887.366 211.681 887.423 211.689 887.476 211.708C887.53 211.727 887.579 211.757 887.62 211.796C887.662 211.835 887.695 211.882 887.717 211.934C887.74 211.986 887.751 212.042 887.751 212.099V227.056C887.751 227.371 887.876 227.674 888.1 227.897C888.323 228.121 888.626 228.246 888.941 228.246C889.257 228.246 889.56 228.121 889.783 227.897C890.006 227.674 890.132 227.371 890.132 227.056V219.672C890.13 219.538 890.179 219.409 890.268 219.31C890.358 219.21 890.482 219.149 890.615 219.137C890.686 219.132 890.757 219.142 890.823 219.166C890.89 219.19 890.952 219.227 891.003 219.275C891.055 219.324 891.096 219.383 891.125 219.448C891.153 219.513 891.167 219.583 891.167 219.654V227.056C891.167 227.371 891.292 227.674 891.516 227.897C891.739 228.121 892.042 228.246 892.357 228.246C892.673 228.246 892.976 228.121 893.199 227.897C893.422 227.674 893.548 227.371 893.548 227.056V212.112C893.547 212.005 893.586 211.901 893.657 211.822C893.729 211.743 893.828 211.694 893.934 211.685C893.991 211.681 894.048 211.689 894.101 211.708C894.155 211.727 894.204 211.757 894.245 211.796C894.287 211.835 894.32 211.882 894.342 211.934C894.365 211.986 894.376 212.042 894.376 212.099V217.25C894.376 217.811 894.812 218.289 895.373 218.309C895.512 218.314 895.651 218.291 895.781 218.241C895.911 218.192 896.03 218.116 896.13 218.019C896.23 217.923 896.31 217.807 896.364 217.679C896.419 217.55 896.446 217.413 896.446 217.273V211.684C896.444 210.806 896.094 209.965 895.473 209.344C894.853 208.724 894.012 208.374 893.134 208.371Z" fill="#F4F4F4" stroke="#343434"/>
<path d="M854.976 188.899L876.766 180.378L898.2 189.76L906.721 211.551L897.339 232.984L875.548 241.506L854.115 232.123L845.593 210.333L854.976 188.899Z" stroke="#343434"/>
<path d="M906.791 211.397L906.79 211.398L906.79 211.398L906.79 211.398L906.723 211.593L906.812 211.778L906.813 211.778L906.813 211.779L906.813 211.779L906.813 211.779L906.819 211.793C906.825 211.806 906.835 211.827 906.847 211.857C906.872 211.917 906.908 212.011 906.951 212.136C907.037 212.388 907.148 212.768 907.24 213.267C907.425 214.263 907.536 215.736 907.224 217.603C906.602 221.33 904.284 226.688 897.377 233.005C890.462 239.33 885.005 241.442 881.323 241.998C879.48 242.277 878.071 242.167 877.134 241.993C876.664 241.906 876.312 241.803 876.082 241.724C875.966 241.684 875.882 241.651 875.828 241.628C875.801 241.617 875.782 241.608 875.77 241.603L875.76 241.598L875.759 241.598L875.759 241.598L875.759 241.598L875.758 241.598L875.52 241.479L875.289 241.613L875.289 241.613L875.289 241.613L875.288 241.614L875.287 241.614L875.279 241.619C875.269 241.624 875.251 241.633 875.226 241.646C875.175 241.67 875.095 241.708 874.986 241.751C874.767 241.839 874.432 241.954 873.983 242.052C873.086 242.247 871.73 242.375 869.939 242.075C866.36 241.475 860.997 239.157 854.081 232.147C847.169 225.141 845.072 219.695 844.661 216.058C844.455 214.237 844.671 212.854 844.93 211.936C845.059 211.477 845.2 211.133 845.306 210.908C845.359 210.796 845.403 210.713 845.433 210.661C845.448 210.635 845.459 210.616 845.465 210.605L845.472 210.594L845.472 210.594L845.472 210.594L845.472 210.593L845.594 210.407L845.536 210.192L845.535 210.192L845.535 210.192L845.535 210.191L845.535 210.188L845.53 210.17C845.526 210.153 845.519 210.126 845.511 210.089C845.495 210.016 845.471 209.903 845.445 209.754C845.393 209.456 845.331 209.012 845.294 208.443C845.219 207.305 845.245 205.665 845.651 203.682C846.461 199.724 848.792 194.366 854.934 188.881C861.166 183.317 864.306 181.183 867.006 180.417C868.345 180.037 869.599 179.987 871.119 180.05C871.667 180.073 872.261 180.111 872.907 180.153C874.024 180.225 875.299 180.307 876.768 180.336C878.635 180.373 880.163 180.267 881.479 180.176C881.819 180.152 882.146 180.129 882.46 180.11C883.997 180.018 885.246 180.014 886.563 180.375C889.209 181.102 892.251 183.335 898.225 189.726C904.131 196.044 906.25 201.501 906.909 205.344C907.239 207.268 907.204 208.797 907.089 209.836C907.032 210.356 906.954 210.754 906.893 211.018C906.862 211.15 906.835 211.249 906.817 211.312C906.807 211.344 906.8 211.367 906.796 211.382L906.791 211.396L906.791 211.397Z" stroke="#343434"/>
<path d="M874.407 238.621V245.121L876.157 238.621V245.121L877.907 238.621V245.121" stroke="#343434" stroke-linecap="round" stroke-linejoin="round"/>
<path d="M874.407 175.967V182.467L876.157 175.967V182.467L877.907 175.967V182.467" stroke="#343434" stroke-linecap="round" stroke-linejoin="round"/>
<path d="M854.328 228.289L849.549 232.695L855.514 229.576L850.735 233.982L856.701 230.862L851.922 235.268" stroke="#343434" stroke-linecap="round" stroke-linejoin="round"/>
<path d="M900.393 185.82L895.614 190.226L901.579 187.107L896.8 191.513L902.765 188.394L897.986 192.799" stroke="#343434" stroke-linecap="round" stroke-linejoin="round"/>
<path d="M848.159 207.808L841.663 207.579L848.098 209.557L841.602 209.328L848.036 211.305L841.54 211.077" stroke="#343434" stroke-linecap="round" stroke-linejoin="round"/>
<path d="M910.774 210.011L904.278 209.782L910.713 211.76L904.217 211.531L910.651 213.509L904.155 213.28" stroke="#343434" stroke-linecap="round" stroke-linejoin="round"/>
<path d="M858.01 189.05L853.516 184.354L856.745 190.26L852.251 185.564L855.481 191.47L850.987 186.773" stroke="#343434" stroke-linecap="round" stroke-linejoin="round"/>
<path d="M901.327 234.316L896.833 229.62L900.063 235.526L895.569 230.83L898.798 236.736L894.304 232.04" stroke="#343434" stroke-linecap="round" stroke-linejoin="round"/>
<path d="M1222.35 192.712L1229.15 182.906M1219.61 208.402L1233.2 195.85" stroke="#343434" stroke-linecap="round" stroke-linejoin="round"/>
<path d="M1175.28 184.084L1183.65 197.943" stroke="#343434" stroke-linecap="round" stroke-linejoin="round"/>
<path d="M1189.54 177.023L1191.23 183.953" stroke="#343434" stroke-linecap="round" stroke-linejoin="round"/>
<path d="M1175.81 201.211L1183.78 208.925" stroke="#343434" stroke-linecap="round" stroke-linejoin="round"/>
<path d="M1170.45 195.854L1172.8 198.468" stroke="#343434" stroke-linecap="round" stroke-linejoin="round"/>
<path d="M1187.75 230.762C1187.75 230.762 1184.08 231.808 1182.91 235.338C1181.92 238.289 1191.82 237.844 1199.75 236.332M1213.37 224.617C1213.37 224.617 1219.46 222.998 1221.22 225.532C1222.63 227.568 1221.01 229.293 1218.11 230.762M1218.11 230.762L1222.09 232.723M1218.11 230.762C1215.53 232.068 1211.94 233.171 1208.59 234.108M1208.59 234.108C1206.99 234.554 1205.45 234.963 1204.09 235.338C1202.78 235.698 1201.3 236.036 1199.75 236.332M1208.59 234.108L1213.37 237.037M1199.75 236.332L1199.08 232.723" stroke="#343434" stroke-linecap="round" stroke-linejoin="round"/>
<path d="M1172.28 215.984C1172.28 215.984 1172.6 218.072 1174.18 220.035M1185.35 229.059C1185.35 229.059 1186.16 226.54 1184.89 224.614M1174.18 220.035C1174.83 220.851 1175.7 221.646 1176.85 222.26C1177.06 222.373 1177.27 222.473 1177.46 222.56M1174.18 220.035L1176.85 216.769M1174.18 224.614L1177.46 222.56M1177.46 222.56C1179.82 223.615 1180.97 222.892 1182.21 222.94M1182.21 222.94C1182.76 222.962 1183.34 223.138 1184.04 223.698C1184.39 223.976 1184.67 224.286 1184.89 224.614M1182.21 222.94V219.384M1184.89 224.614L1181.43 227.228" stroke="#343434" stroke-linecap="round" stroke-linejoin="round"/>
<path d="M1192.41 232.46C1192.41 232.46 1194.76 216.508 1193.72 212.587C1192.67 208.665 1188.89 205.683 1188.1 200.558C1187.67 197.782 1187.84 193.889 1187.84 193.334C1187.84 192.779 1187.88 188.548 1190.06 187.876C1191.47 187.441 1193.72 188.791 1193.72 188.791C1193.72 188.791 1194.65 185.577 1196.33 185.261C1197.37 185.067 1198.95 185.915 1198.95 185.915C1198.95 185.915 1200.33 183.547 1201.82 183.3C1202.97 183.11 1204.7 184.084 1204.7 184.084C1204.7 184.084 1206.61 181.428 1208.36 181.469C1210.42 181.517 1212.02 185.981 1212.02 185.981M1209.8 227.884L1209.01 211.036L1205.62 212.587C1205.62 212.587 1210.59 210.642 1213.07 208.403C1215.8 205.933 1217.21 204.076 1218.3 200.558C1219.43 196.9 1219.34 194.282 1219.34 191.667C1219.34 189.052 1218.69 188.268 1217.51 187.091C1216.34 185.915 1209.8 185.915 1209.8 185.915C1209.8 185.915 1204.92 185.132 1204.7 186.568C1204.63 187.015 1204.91 187.484 1205.24 187.876M1212.02 195.851V193.759M1190.06 196.635C1190.06 196.635 1192.08 198.871 1193.72 198.727C1194.88 198.625 1196.33 197.289 1196.33 197.289M1196.33 197.289C1196.33 197.289 1197.61 199.449 1198.95 199.512C1200.37 199.578 1201.82 197.289 1201.82 197.289M1196.33 197.289L1194.37 191.667M1201.82 197.289C1201.82 197.289 1204.32 198.701 1205.62 197.943M1201.82 197.289L1199.99 188.791M1205.62 197.943C1206.47 197.442 1206.92 196.93 1207.05 195.851C1207.19 194.772 1205.24 187.876 1205.24 187.876M1205.62 197.943C1205.62 197.943 1202.52 200.395 1201.82 202.649C1201.27 204.454 1201.82 207.487 1201.82 207.487M1205.62 197.943L1212.02 193.759M1205.24 187.876C1205.7 188.404 1206.27 188.791 1206.27 188.791L1212.02 191.667V193.759" stroke="#343434" stroke-linecap="round" stroke-linejoin="round"/>
<path d="M1187.18 211.934L1189.14 214.156" stroke="#343434" stroke-linecap="round" stroke-linejoin="round"/>
<path d="M1192.15 237.689L1191.37 241.22" stroke="#343434" stroke-linecap="round" stroke-linejoin="round"/>
<path d="M1183.13 234.683L1179.86 233.637" stroke="#343434" stroke-linecap="round" stroke-linejoin="round"/>
<path d="M1219.74 224.224L1220.39 221.74" stroke="#343434" stroke-linecap="round" stroke-linejoin="round"/>
<path d="M1219.74 218.599C1219.74 218.599 1221.28 215.802 1223.01 215.069M1223.01 215.069L1223.66 211.016M1223.01 215.069C1224.49 214.439 1225.68 215.516 1227.11 215.217M1231.11 209.055C1231.11 209.055 1230.65 211.275 1229.6 213.062M1227.11 215.217C1227.27 215.185 1227.42 215.137 1227.58 215.069C1228.41 214.717 1229.08 213.942 1229.6 213.062M1227.11 215.217L1231.11 217.292M1229.6 213.062L1227.58 209.97" stroke="#343434" stroke-linecap="round" stroke-linejoin="round"/>
</g>
<defs>
<clipPath id="clip0_331_9698">
<rect width="1440" height="416" fill="white" transform="translate(0.263672 0.789062)"/>
</clipPath>
</defs>
</svg>
