<svg width="1441" height="417" viewBox="0 0 1441 417" fill="none" xmlns="http://www.w3.org/2000/svg">
<g clip-path="url(#clip0_331_9698)">
<rect width="1440" height="416" transform="translate(0.263672 0.789062)" fill="#F4F4F4"/>
<path d="M-56.9365 210.289H150.137C150.137 222.552 153.773 234.539 160.586 244.734C167.398 254.93 177.081 262.877 188.41 267.57C199.739 272.262 212.205 273.49 224.232 271.098C236.259 268.705 247.307 262.801 255.977 254.13C264.648 245.459 270.553 234.411 272.945 222.385C275.338 210.358 274.11 197.892 269.417 186.563C264.725 175.234 256.778 165.551 246.582 158.738C236.386 151.925 224.399 148.289 212.137 148.289V104.289" stroke="#FFD249" stroke-width="4"/>
<path d="M605 210H812.073C812.073 222.262 815.709 234.249 822.522 244.445C829.335 254.641 839.018 262.588 850.347 267.281C861.676 271.973 874.142 273.201 886.169 270.809C898.196 268.416 909.243 262.511 917.914 253.841C926.585 245.17 932.49 234.122 934.882 222.096C937.274 210.069 936.046 197.603 931.354 186.274C926.661 174.945 918.714 165.262 908.519 158.449C898.323 151.636 886.336 148 874.073 148V104" stroke="#FFD249" stroke-width="4"/>
<path d="M936.283 209.555H1143.36C1143.36 197.292 1146.99 185.305 1153.81 175.109C1160.62 164.913 1170.3 156.967 1181.63 152.274C1192.96 147.582 1205.43 146.354 1217.45 148.746C1229.48 151.138 1240.53 157.043 1249.2 165.714C1257.87 174.385 1263.77 185.432 1266.17 197.459C1268.56 209.486 1267.33 221.952 1262.64 233.281C1257.94 244.61 1250 254.293 1239.8 261.106C1229.61 267.918 1217.62 271.555 1205.36 271.555V315.555" stroke="#FFD249" stroke-width="4"/>
<path d="M1548.63 206.555H1267.36" stroke="#FFD249" stroke-width="4"/>
<path d="M274.137 209.555H481.21C481.21 197.292 484.846 185.305 491.659 175.109C498.471 164.913 508.155 156.967 519.484 152.274C530.813 147.582 543.279 146.354 555.306 148.746C567.332 151.138 578.38 157.043 587.051 165.714C595.721 174.385 601.626 185.432 604.019 197.459C606.411 209.486 605.183 221.952 600.49 233.281C595.798 244.61 587.851 254.293 577.655 261.106C567.459 267.918 555.472 271.555 543.21 271.555V315.555" stroke="#FFD249" stroke-width="4"/>
</g>
<defs>
<clipPath id="clip0_331_9698">
<rect width="1440" height="416" fill="white" transform="translate(0.263672 0.789062)"/>
</clipPath>
</defs>
</svg>
