<svg width="25" height="25" fill="none" xmlns="http://www.w3.org/2000/svg"><path d="M12.126.79a12 12 0 10.112 23.999 12 12 0 00-.112-24zm4.962 7.223c.1-.002.321.023.465.14.096.083.157.2.171.325.016.093.036.306.02.472-.18 1.898-.962 6.502-1.36 8.627-.168.9-.499 1.201-.82 1.23-.696.065-1.225-.46-1.9-.902-1.056-.693-1.653-1.124-2.678-1.8-1.185-.78-.417-1.21.258-1.91.177-.184 3.247-2.977 3.307-3.23.007-.032.014-.15-.056-.212s-.174-.04-.249-.024c-.106.024-1.793 1.14-5.06 3.345-.48.33-.914.49-1.303.48-.428-.008-1.252-.24-1.865-.44-.752-.245-1.349-.374-1.297-.789.027-.216.325-.437.893-.663 3.498-1.524 5.83-2.529 6.998-3.014 3.332-1.386 4.025-1.627 4.476-1.635z" fill="#000"/></svg>