<svg width="25" height="25" viewBox="0 0 25 25" fill="none" xmlns="http://www.w3.org/2000/svg">
<path d="M24.1819 12.7151C24.1538 10.4283 23.4728 8.19709 22.2191 6.28432C20.9654 4.37155 19.1912 2.85686 17.1055 1.91863C15.0198 0.980395 12.7095 0.657698 10.4465 0.98854C8.18354 1.31938 6.06224 2.28998 4.33243 3.78604C2.60261 5.28209 1.33632 7.2413 0.682685 9.43291C0.029048 11.6245 0.0152851 13.9573 0.643018 16.1565C1.27075 18.3556 2.51384 20.3297 4.22588 21.846C5.93792 23.3624 8.04762 24.3579 10.3065 24.7155V16.2102H7.30643V12.7151H10.3065V10.06C10.2371 9.44267 10.304 8.81759 10.5026 8.22892C10.7011 7.64025 11.0265 7.10233 11.4556 6.65313C11.8848 6.20394 12.4073 5.85441 12.9864 5.62923C13.5654 5.40405 14.1868 5.3087 14.8066 5.34991C15.7064 5.36223 16.604 5.44246 17.4917 5.58991V8.59H15.9917C15.733 8.55738 15.4703 8.5833 15.223 8.66584C14.9757 8.74839 14.7501 8.88545 14.5629 9.0669C14.3757 9.24835 14.2317 9.46955 14.1414 9.71415C14.0512 9.95875 14.0171 10.2205 14.0416 10.4801V12.7451H17.3717L16.8317 16.2402H14.0566V24.6405C16.8916 24.192 19.4719 22.7424 21.3296 20.5545C23.1873 18.3665 24.1992 15.5853 24.1819 12.7151Z" fill="black"/>
</svg>
