<svg width="25" height="25" viewBox="0 0 25 25" fill="none" xmlns="http://www.w3.org/2000/svg">
<path d="M16.0221 12.7891C16.0221 13.5485 15.7969 14.291 15.375 14.9225C14.953 15.5539 14.3533 16.0461 13.6516 16.3368C12.95 16.6274 12.1779 16.7034 11.433 16.5553C10.6881 16.4071 10.0039 16.0414 9.46684 15.5044C8.9298 14.9673 8.56408 14.2831 8.41591 13.5382C8.26775 12.7933 8.34379 12.0212 8.63443 11.3196C8.92507 10.6179 9.41725 10.0182 10.0487 9.59622C10.6802 9.17427 11.4226 8.94906 12.1821 8.94906C13.1996 8.95223 14.1745 9.35781 14.8939 10.0773C15.6134 10.7967 16.019 11.7716 16.0221 12.7891ZM24.1821 7.50906V18.0691C24.1821 19.8513 23.4741 21.5606 22.2139 22.8208C20.9536 24.0811 19.2444 24.7891 17.4621 24.7891H6.90213C5.11987 24.7891 3.41062 24.0811 2.15037 22.8208C0.890127 21.5606 0.182129 19.8513 0.182129 18.0691V7.50906C0.182129 5.72681 0.890127 4.01755 2.15037 2.7573C3.41062 1.49706 5.11987 0.789063 6.90213 0.789062H17.4621C19.2444 0.789063 20.9536 1.49706 22.2139 2.7573C23.4741 4.01755 24.1821 5.72681 24.1821 7.50906ZM17.9421 12.7891C17.9421 11.6498 17.6043 10.5362 16.9714 9.58898C16.3385 8.64175 15.4389 7.90348 14.3864 7.46752C13.3339 7.03156 12.1757 6.91749 11.0584 7.13974C9.94108 7.36199 8.91474 7.91058 8.10919 8.71613C7.30364 9.52168 6.75506 10.548 6.53281 11.6653C6.31055 12.7827 6.42462 13.9408 6.86058 14.9933C7.29654 16.0458 8.03482 16.9454 8.98204 17.5783C9.92927 18.2112 11.0429 18.5491 12.1821 18.5491C13.7098 18.5491 15.1749 17.9422 16.2551 16.862C17.3353 15.7818 17.9421 14.3167 17.9421 12.7891ZM19.8621 6.54906C19.8621 6.26426 19.7777 5.98585 19.6194 5.74904C19.4612 5.51223 19.2363 5.32767 18.9732 5.21868C18.7101 5.10969 18.4205 5.08117 18.1412 5.13673C17.8619 5.19229 17.6053 5.32944 17.4039 5.53083C17.2025 5.73222 17.0654 5.9888 17.0098 6.26813C16.9542 6.54746 16.9828 6.837 17.0917 7.10013C17.2007 7.36325 17.3853 7.58815 17.6221 7.74638C17.8589 7.90461 18.1373 7.98906 18.4221 7.98906C18.804 7.98906 19.1703 7.83735 19.4404 7.5673C19.7104 7.29724 19.8621 6.93097 19.8621 6.54906Z" fill="black"/>
</svg>
