<svg width="25" height="25" viewBox="0 0 25 25" fill="none" xmlns="http://www.w3.org/2000/svg">
<path d="M12.1261 0.789095C8.95324 0.803902 5.91536 2.07472 3.67703 4.32355C1.43869 6.57239 0.182094 9.61618 0.182129 12.7891C0.182129 15.9717 1.44641 19.0239 3.69685 21.2744C5.94728 23.5248 8.99953 24.7891 12.1821 24.7891C15.3647 24.7891 18.417 23.5248 20.6674 21.2744C22.9178 19.0239 24.1821 15.9717 24.1821 12.7891C24.1821 9.6065 22.9178 6.55425 20.6674 4.30381C18.417 2.05338 15.3647 0.789095 12.1821 0.789095C12.1635 0.789052 12.1448 0.789052 12.1261 0.789095ZM17.0881 8.0131C17.1881 8.0111 17.4091 8.0361 17.5531 8.1531C17.6488 8.23619 17.7098 8.35217 17.7241 8.4781C17.7401 8.5711 17.7601 8.7841 17.7441 8.9501C17.5641 10.8481 16.7821 15.4521 16.3841 17.5771C16.2161 18.4771 15.8851 18.7781 15.5641 18.8071C14.8681 18.8721 14.3391 18.3471 13.6641 17.9051C12.6081 17.2121 12.0111 16.7811 10.9861 16.1051C9.80113 15.3251 10.5691 14.8951 11.2441 14.1951C11.4211 14.0111 14.4911 11.2181 14.5511 10.9651C14.5581 10.9331 14.5651 10.8151 14.4951 10.7531C14.4251 10.6911 14.3211 10.7121 14.2461 10.7291C14.1401 10.7531 12.4531 11.8691 9.18513 14.0741C8.70513 14.4041 8.27213 14.5641 7.88313 14.5541C7.45513 14.5461 6.63113 14.3131 6.01813 14.1141C5.26613 13.8691 4.66913 13.7401 4.72113 13.3251C4.74813 13.1091 5.04613 12.8881 5.61413 12.6621C9.11213 11.1381 11.4441 10.1331 12.6121 9.6481C15.9441 8.2621 16.6371 8.0211 17.0881 8.0131Z" fill="black"/>
</svg>
