<svg width="1441" height="417" fill="none" xmlns="http://www.w3.org/2000/svg"><g clip-path="url(#clip0_331_9698)"><path fill="#F4F4F4" d="M.264.79h1440v416H.264z"/><path d="M215.436 214.226l-.751-.684c-2.667-2.418-4.428-4.019-4.428-5.971 0-1.6 1.253-2.848 2.848-2.848.901 0 1.766.419 2.331 1.077a3.112 3.112 0 012.33-1.077 2.817 2.817 0 012.848 2.848c0 1.952-1.76 3.553-4.427 5.971l-.751.684zm17.755 12.69l-.471-.429c-1.672-1.517-2.777-2.52-2.777-3.745 0-1.003.786-1.786 1.787-1.786a1.95 1.95 0 011.461.676 1.953 1.953 0 011.462-.676c1 0 1.786.783 1.786 1.786 0 1.225-1.104 2.228-2.777 3.745l-.471.429zm-38.65-3.408l-.569-.518c-2.021-1.832-3.355-3.044-3.355-4.524 0-1.212.95-2.157 2.158-2.157.683 0 1.338.317 1.766.816a2.354 2.354 0 011.765-.816c1.208 0 2.158.945 2.158 2.157 0 1.48-1.334 2.692-3.355 4.524l-.568.518z" fill="#FFD249"/><path d="M211.495 237.226s1.073-15.876 0-17.593c-1.072-1.716-2.789-3.968-4.29-7.079-1.501-3.111-3.432-12.23-2.467-14.161.965-1.931 2.467 1.717 2.467 1.717l1.716 5.149V187.88s0-1.716 1.552-1.716c1.553 0 2.095 1.716 2.095 1.716m0 0v11.8m0-11.8s-.322-4.182 1.503-4.505c1.824-.323 2.359 2.789 2.359 2.789m0 0s.919-1.609 1.932-1.609c1.609 0 2.144 2.467 2.144 2.467v3.433m-4.076-4.291v13.516m4.076-9.225s1.566-.468 2.36 0c.939.553 1.063 3.214 1.063 3.214v16.31c0 5.471-1.813 7.459-2.135 9.654-1.043 7.13-.643 17.593-.643 17.593m-.645-46.771v10.298m10.131 36.474s.672-8.086 0-8.961c-.672-.874-1.746-2.021-2.686-3.605-.94-1.585-2.149-6.229-1.544-7.212.604-.984 1.544.874 1.544.874l1.074 2.623v-8.851s0-.875.972-.875 1.312.875 1.312.875m0 0v6.009m0-6.009s-.202-2.13.94-2.295c1.143-.165 1.477 1.42 1.477 1.42m0 0s.576-.819 1.21-.819c1.007 0 1.342 1.257 1.342 1.257v1.748m-2.552-2.186v6.884m2.552-4.698s.981-.238 1.478 0c.587.281.665 1.637.665 1.637v8.306c0 2.787-1.135 3.8-1.336 4.917-.654 3.632-.403 8.961-.403 8.961m-.404-23.821v5.245m-44.988 18.575s.832-10.011 0-11.093c-.831-1.082-2.161-2.502-3.325-4.464-1.164-1.962-2.66-7.711-1.912-8.929.748-1.217 1.912 1.083 1.912 1.083l1.33 3.246v-10.958s0-1.082 1.203-1.082 1.624 1.082 1.624 1.082m0 0v7.441m0-7.441s-.25-2.637 1.164-2.84c1.415-.204 1.829 1.758 1.829 1.758m0 0s.713-1.014 1.497-1.014c1.247 0 1.663 1.555 1.663 1.555v2.165m-3.16-2.706v8.523m3.16-5.817s1.213-.295 1.829 0c.727.349.824 2.027.824 2.027v10.284c0 3.449-1.406 4.703-1.655 6.087-.809 4.496-.499 11.093-.499 11.093m-.499-29.491v6.493" stroke="#343434"/><path d="M-56.937 210.289h207.074a61.998 61.998 0 00122.808 12.096 61.997 61.997 0 00-60.808-74.096v-44M605 210h207.073a61.998 61.998 0 0038.274 57.281 62.007 62.007 0 0067.567-13.44A62 62 0 00874.073 148v-44" stroke="#FFD249" stroke-width="4"/><path d="M936.283 209.555h207.077c0-12.263 3.63-24.25 10.45-34.446a61.97 61.97 0 0127.82-22.835 62.007 62.007 0 0167.57 13.44 62.066 62.066 0 0116.97 31.745 62.041 62.041 0 01-3.53 35.822 62.034 62.034 0 01-22.84 27.825 61.98 61.98 0 01-34.44 10.449v44m343.27-109h-281.27m-993.223 3H481.21a61.998 61.998 0 0174.096-60.809 62 62 0 01-12.096 122.809v44" stroke="#FFD249" stroke-width="4"/><rect x="520.729" y="182.477" width="40.809" height="54" rx="1.5" stroke="#343434"/><path d="M527.956 192.861h27.5m-27.5 8.881h27.5m-27.5 8.881h27.5m-27.5 8.881h27.5m-27.5 8.879h27.5" stroke="#343434"/><circle cx="562.037" cy="219.503" r="11.458" fill="#FFD249"/><path d="M557.454 218.643l4.011 5.729 5.156-9.739m317.333-14.629a2.9 2.9 0 100-5.798 2.9 2.9 0 000 5.798zm-15.594 0a2.9 2.9 0 100-5.798 2.9 2.9 0 000 5.798zm18.078 1h-4.968a3.324 3.324 0 00-3.313 3.312v5.565c0 .562.437 1.04.998 1.06a1.029 1.029 0 00.756-.289 1.038 1.038 0 00.317-.746v-5.162a.418.418 0 01.109-.289.43.43 0 01.277-.138.429.429 0 01.311.112.417.417 0 01.131.303v14.956a1.19 1.19 0 102.381 0v-7.383a.53.53 0 01.482-.535.512.512 0 01.51.311.52.52 0 01.043.206v7.401a1.19 1.19 0 102.381 0v-14.944a.418.418 0 01.109-.289.43.43 0 01.277-.138.429.429 0 01.311.112.417.417 0 01.131.303v5.15c0 .562.436 1.04.997 1.06a1.034 1.034 0 001.073-1.036v-5.59a3.323 3.323 0 00-3.313-3.312zm-15.593 0h-4.969a3.32 3.32 0 00-3.313 3.312v5.565c0 .562.437 1.04.998 1.06a1.03 1.03 0 001.073-1.035v-5.162a.423.423 0 01.386-.427.429.429 0 01.311.112.402.402 0 01.131.303v14.956a1.19 1.19 0 102.381 0v-7.383a.529.529 0 01.483-.535.512.512 0 01.552.517v7.401a1.19 1.19 0 102.381 0v-14.944a.423.423 0 01.386-.427.429.429 0 01.311.112.402.402 0 01.131.303v5.15c0 .562.436 1.04.997 1.06a1.034 1.034 0 001.073-1.036v-5.59a3.32 3.32 0 00-3.312-3.312z" stroke="#343434"/><path d="M864.149 208.371h-4.968a3.328 3.328 0 00-2.34.973 3.328 3.328 0 00-.973 2.34v5.565c0 .561.436 1.039.998 1.059a1.029 1.029 0 00.756-.289 1.038 1.038 0 00.316-.746v-5.161a.425.425 0 01.387-.427.41.41 0 01.408.249.424.424 0 01.034.165v14.957a1.19 1.19 0 102.38 0v-7.384a.53.53 0 01.483-.535.512.512 0 01.51.311.52.52 0 01.043.206v7.402a1.19 1.19 0 102.38 0v-14.944a.425.425 0 01.387-.427.41.41 0 01.408.249.424.424 0 01.034.165v5.151c0 .561.436 1.039.997 1.059a1.034 1.034 0 001.073-1.036v-5.589a3.328 3.328 0 00-.973-2.34 3.328 3.328 0 00-2.34-.973zm-2.484-.828a2.898 2.898 0 100-5.796 2.898 2.898 0 000 5.796zm14.492 0a2.899 2.899 0 100-5.798 2.899 2.899 0 000 5.798zm14.492 0a2.899 2.899 0 100-5.798 2.899 2.899 0 000 5.798zm-12.007.828h-4.969a3.328 3.328 0 00-2.34.973 3.328 3.328 0 00-.973 2.34v5.565c0 .561.437 1.039.998 1.059a1.029 1.029 0 00.756-.289 1.038 1.038 0 00.317-.746v-5.161a.42.42 0 01.553-.404.403.403 0 01.144.088.424.424 0 01.131.303v14.957a1.19 1.19 0 102.381 0v-7.384a.53.53 0 01.483-.535.51.51 0 01.388.138.52.52 0 01.164.379v7.402a1.19 1.19 0 102.381 0v-14.944a.42.42 0 01.553-.404.403.403 0 01.144.088.424.424 0 01.131.303v5.151c0 .561.436 1.039.997 1.059a1.034 1.034 0 001.073-1.036v-5.589a3.32 3.32 0 00-3.312-3.313zm14.492 0h-4.969a3.324 3.324 0 00-3.312 3.313v5.565c0 .561.436 1.039.997 1.059a1.034 1.034 0 001.073-1.035v-5.161a.424.424 0 01.386-.427.41.41 0 01.408.249.406.406 0 01.034.165v14.957c0 .315.125.618.349.841a1.187 1.187 0 001.683 0 1.19 1.19 0 00.349-.841v-7.384a.53.53 0 01.483-.535.518.518 0 01.552.517v7.402c0 .315.125.618.349.841a1.187 1.187 0 001.683 0 1.19 1.19 0 00.349-.841v-14.944a.424.424 0 01.386-.427.41.41 0 01.408.249.406.406 0 01.034.165v5.151c0 .561.436 1.039.997 1.059a1.034 1.034 0 001.073-1.036v-5.589a3.32 3.32 0 00-3.312-3.313z" fill="#F4F4F4" stroke="#343434"/><path d="M854.976 188.899l21.79-8.521 21.434 9.382 8.521 21.791-9.382 21.433-21.791 8.522-21.433-9.383-8.522-21.79 9.383-21.434z" stroke="#343434"/><path d="M906.791 211.397l-.001.001h0l-.067.195.089.185h.001v.001h0l.006.014c.006.013.016.034.028.064.025.06.061.154.104.279.086.252.197.632.289 1.131.185.996.296 2.469-.016 4.336-.622 3.727-2.94 9.085-9.847 15.402-6.915 6.325-12.372 8.437-16.054 8.993-1.843.279-3.252.169-4.189-.005a7.412 7.412 0 01-1.052-.269c-.116-.04-.2-.073-.254-.096l-.058-.025-.01-.005h-.001 0-.001l-.238-.119-.231.134h0l-.001.001h-.001l-.008.005-.053.027c-.051.024-.131.062-.24.105a6.312 6.312 0 01-1.003.301c-.897.195-2.253.323-4.044.023-3.579-.6-8.942-2.918-15.858-9.928-6.912-7.006-9.009-12.452-9.42-16.089-.206-1.821.01-3.204.269-4.122a6.64 6.64 0 01.376-1.028c.053-.112.097-.195.127-.247l.032-.056.007-.011h0v-.001l.122-.186-.058-.215h-.001 0v-.004l-.005-.018-.019-.081a7.74 7.74 0 01-.066-.335 12.361 12.361 0 01-.151-1.311c-.075-1.138-.049-2.778.357-4.761.81-3.958 3.141-9.316 9.283-14.801 6.232-5.564 9.372-7.698 12.072-8.464 1.339-.38 2.593-.43 4.113-.367.548.023 1.142.061 1.788.103 1.117.072 2.392.154 3.861.183 1.867.037 3.395-.069 4.711-.16.34-.024.667-.047.981-.066 1.537-.092 2.786-.096 4.103.265 2.646.727 5.688 2.96 11.662 9.351 5.906 6.318 8.025 11.775 8.684 15.618.33 1.924.295 3.453.18 4.492-.057.52-.135.918-.196 1.182a6.368 6.368 0 01-.097.364l-.005.014v.001z" stroke="#343434"/><path d="M874.407 238.621v6.5l1.75-6.5v6.5l1.75-6.5v6.5m-3.5-69.154v6.5l1.75-6.5v6.5l1.75-6.5v6.5m-23.579 45.822l-4.779 4.406 5.965-3.119-4.779 4.406 5.966-3.12-4.779 4.406m48.471-49.448l-4.779 4.406 5.965-3.119-4.779 4.406 5.965-3.119-4.779 4.405m-49.827 15.009l-6.496-.229 6.435 1.978-6.496-.229 6.434 1.977-6.496-.228m69.234-1.066l-6.496-.229 6.435 1.978-6.496-.229 6.434 1.978-6.496-.229m-46.145-24.23l-4.494-4.696 3.229 5.906-4.494-4.696 3.23 5.906-4.494-4.697m50.34 47.543l-4.494-4.696 3.23 5.906-4.494-4.696 3.229 5.906-4.494-4.696m328.046-39.328l6.8-9.806m-9.54 25.496l13.59-12.552m-57.92-11.766l8.37 13.859m5.89-20.92l1.69 6.93m-15.42 17.258l7.97 7.714m-13.33-13.071l2.35 2.614m14.95 32.294s-3.67 1.046-4.84 4.576c-.99 2.951 8.91 2.506 16.84.994m13.62-11.715s6.09-1.619 7.85.915c1.41 2.036-.21 3.761-3.11 5.23m0 0l3.98 1.961m-3.98-1.961c-2.58 1.306-6.17 2.409-9.52 3.346m0 0c-1.6.446-3.14.855-4.5 1.23-1.31.36-2.79.698-4.34.994m8.84-2.224l4.78 2.929m-13.62-.705l-.67-3.609m-26.8-16.739s.32 2.088 1.9 4.051m11.17 9.024s.81-2.519-.46-4.445m-10.71-4.579a8.536 8.536 0 002.67 2.225c.21.113.42.213.61.3m-3.28-2.525l2.67-3.266m-2.67 7.845l3.28-2.054m0 0c2.36 1.055 3.51.332 4.75.38m0 0c.55.022 1.13.198 1.83.758.35.278.63.588.85.916m-2.68-1.674v-3.556m2.68 5.23l-3.46 2.614m10.98 5.232s2.35-15.952 1.31-19.873c-1.05-3.922-4.83-6.904-5.62-12.029-.43-2.776-.26-6.669-.26-7.224 0-.555.04-4.786 2.22-5.458 1.41-.435 3.66.915 3.66.915s.93-3.214 2.61-3.53c1.04-.194 2.62.654 2.62.654s1.38-2.368 2.87-2.615c1.15-.19 2.88.784 2.88.784s1.91-2.656 3.66-2.615c2.06.048 3.66 4.512 3.66 4.512m-2.22 41.903l-.79-16.848-3.39 1.551s4.97-1.945 7.45-4.184c2.73-2.47 4.14-4.327 5.23-7.845 1.13-3.658 1.04-6.276 1.04-8.891s-.65-3.399-1.83-4.576c-1.17-1.176-7.71-1.176-7.71-1.176s-4.88-.783-5.1.653c-.07.447.21.916.54 1.308m6.78 7.975v-2.092m-21.96 2.876s2.02 2.236 3.66 2.092c1.16-.102 2.61-1.438 2.61-1.438m0 0s1.28 2.16 2.62 2.223c1.42.066 2.87-2.223 2.87-2.223m-5.49 0l-1.96-5.622m7.45 5.622s2.5 1.412 3.8.654m-3.8-.654l-1.83-8.498m5.63 9.152c.85-.501 1.3-1.013 1.43-2.092.14-1.079-1.81-7.975-1.81-7.975m.38 10.067s-3.1 2.452-3.8 4.706c-.55 1.805 0 4.838 0 4.838m3.8-9.544l6.4-4.184m-6.78-5.883a6.1 6.1 0 001.03.915l5.75 2.876v2.092m-24.84 18.175l1.96 2.222m3.01 23.533l-.78 3.531m-8.24-6.537l-3.27-1.046m39.88-9.413l.65-2.484m-.65-3.141s1.54-2.797 3.27-3.53m0 0l.65-4.053m-.65 4.053c1.48-.63 2.67.447 4.1.148m4-6.162s-.46 2.22-1.51 4.007m-2.49 2.155c.16-.032.31-.08.47-.148.83-.352 1.5-1.127 2.02-2.007m-2.49 2.155l4 2.075m-1.51-4.23l-2.02-3.092" stroke="#343434" stroke-linecap="round" stroke-linejoin="round"/></g><defs><clipPath id="clip0_331_9698"><path fill="#fff" transform="translate(.264 .79)" d="M0 0h1440v416H0z"/></clipPath></defs></svg>