<svg width="1441" height="417" fill="none" xmlns="http://www.w3.org/2000/svg"><g clip-path="url(#clip0_331_9698)"><path fill="#F4F4F4" d="M.264.79h1440v416H.264z"/><path d="M-56.937 210.289h207.074a61.998 61.998 0 00122.808 12.096 61.997 61.997 0 00-60.808-74.096v-44M605 210h207.073a61.998 61.998 0 0038.274 57.281 62.007 62.007 0 0067.567-13.44A62 62 0 00874.073 148v-44" stroke="#FFD249" stroke-width="4"/><path d="M936.283 209.555h207.077c0-12.263 3.63-24.25 10.45-34.446a61.97 61.97 0 0127.82-22.835 62.007 62.007 0 0167.57 13.44 62.066 62.066 0 0116.97 31.745 62.041 62.041 0 01-3.53 35.822 62.034 62.034 0 01-22.84 27.825 61.98 61.98 0 01-34.44 10.449v44m343.27-109h-281.27m-993.223 3H481.21a61.998 61.998 0 0174.096-60.809 62 62 0 01-12.096 122.809v44" stroke="#FFD249" stroke-width="4"/></g><defs><clipPath id="clip0_331_9698"><path fill="#fff" transform="translate(.264 .79)" d="M0 0h1440v416H0z"/></clipPath></defs></svg>