<svg width="216" height="235" fill="none" xmlns="http://www.w3.org/2000/svg"><path fill-rule="evenodd" clip-rule="evenodd" d="M126.262 66.467c0-18.158 14.72-32.878 32.878-32.878s32.878 14.72 32.878 32.878v104.707l-13.963-8.302V66.694c0-10.496-8.508-19.004-19.003-19.004-10.495 0-19.004 8.508-19.004 19.004v73.579l-13.786-8.197V66.467z" fill="#343434"/><path fill-rule="evenodd" clip-rule="evenodd" d="M50.248 154.965v-98.26l57.01 34.578 55.265-35.843 1.034 98.812-14.026-8.341V84.114l-42.273 25.722-42.079-25.722v61.769l-14.931 9.082z" fill="#343434"/><path fill-rule="evenodd" clip-rule="evenodd" d="M23.074 66.467c0-18.158 14.72-32.878 32.878-32.878 18.159 0 32.879 14.72 32.879 32.878v65.024l-13.963 8.494V66.694c0-10.496-8.508-19.004-19.004-19.004-10.495 0-19.003 8.508-19.003 19.004v96.41l-13.787 8.386V66.467z" fill="#343434"/><path d="M107.006 128.086l-83.5 50.5v14l83.5-51 85.5 51v-14l-85.5-50.5zm-94.431 79.652h3.991l4.953 14.946 5.026-14.946h3.933l3.613 21.429h-3.933l-2.302-13.533-4.56 13.533h-3.598l-4.501-13.533-2.346 13.533H8.874l3.7-21.429zm37.56 5.579h3.963v15.85h-3.962v-1.675c-.777.738-1.56 1.272-2.346 1.602a6.573 6.573 0 01-2.535.481c-2.049 0-3.821-.792-5.317-2.375-1.495-1.592-2.243-3.569-2.243-5.929 0-2.447.723-4.452 2.17-6.016s3.205-2.345 5.274-2.345c.952 0 1.845.179 2.68.539.835.359 1.608.898 2.317 1.617v-1.749zm-4.18 3.264c-1.234 0-2.258.437-3.074 1.311-.816.864-1.224 1.976-1.224 3.336 0 1.369.413 2.496 1.239 3.379.835.884 1.86 1.326 3.073 1.326 1.253 0 2.292-.432 3.118-1.297.825-.874 1.238-2.015 1.238-3.423 0-1.379-.413-2.496-1.238-3.35-.826-.855-1.87-1.282-3.132-1.282zm13.64-3.264h9.251v3.788h-5.259v12.062h-3.991v-15.85zm15.011-6.526c.7 0 1.297.253 1.792.758a2.5 2.5 0 01.758 1.835c0 .709-.248 1.316-.743 1.821a2.426 2.426 0 01-1.778.743 2.482 2.482 0 01-1.82-.757 2.594 2.594 0 01-.744-1.865c0-.699.248-1.297.743-1.792a2.443 2.443 0 011.792-.743zm-1.996 6.526h3.992v15.85H72.61v-15.85zm11.791 9.353c-.854-.282-1.558-.811-2.112-1.588a4.554 4.554 0 01-.816-2.651c0-1.175.335-2.205 1.005-3.089.67-.883 1.467-1.442 2.39-1.675.932-.233 2.384-.35 4.355-.35h4.02v15.85h-3.99v-5.74h-.773l-3.773 5.74h-4.705l4.4-6.497zm4.851-2.229v-3.802H87.87c-1.506 0-2.258.631-2.258 1.894 0 1.272.84 1.908 2.52 1.908h1.121zm21.412 8.726v2.753h-3.54v-6.118h2.389l5.463-12.485h2.564l5.535 12.485h2.433v6.118h-3.787v-2.753h-11.057zm8.187-3.365l-2.593-6.672-2.681 6.672h5.274zm18.128-12.892a8.36 8.36 0 014.21 1.121c1.321.748 2.35 1.763 3.088 3.045a8.182 8.182 0 011.107 4.152 8.288 8.288 0 01-1.121 4.195 8.051 8.051 0 01-3.031 3.059c-1.281.729-2.695 1.093-4.239 1.093-2.272 0-4.215-.806-5.827-2.418-1.602-1.622-2.403-3.589-2.403-5.9 0-2.477.908-4.54 2.724-6.191 1.592-1.438 3.423-2.156 5.492-2.156zm.058 3.743c-1.233 0-2.263.433-3.088 1.297-.816.855-1.224 1.952-1.224 3.292 0 1.379.403 2.496 1.209 3.351.816.854 1.845 1.282 3.088 1.282 1.244 0 2.278-.432 3.103-1.297.826-.864 1.239-1.976 1.239-3.336 0-1.359-.408-2.462-1.224-3.307-.806-.854-1.84-1.282-3.103-1.282zm28.252-9.789v3.758a32.208 32.208 0 01-3.306.204c-1.943.02-3.404.107-4.385.263-.981.145-1.846.495-2.593 1.048-.748.544-1.277 1.176-1.588 1.894-.311.709-.5 1.734-.568 3.074 1.146-2.748 3.112-4.123 5.9-4.123 2.049 0 3.821.753 5.317 2.258 1.505 1.496 2.258 3.429 2.258 5.798 0 2.448-.806 4.482-2.419 6.104-1.612 1.622-3.603 2.433-5.972 2.433-1.933 0-3.637-.593-5.114-1.777-1.466-1.185-2.408-2.593-2.826-4.225-.417-1.641-.626-3.389-.626-5.244 0-2.38.296-4.312.889-5.798.592-1.496 1.369-2.617 2.33-3.365.972-.748 2.093-1.248 3.366-1.501 1.272-.252 3.141-.432 5.608-.539 1.67-.077 2.914-.165 3.729-.262zm-2.986 14.378c0-1.321-.398-2.413-1.195-3.277-.786-.875-1.83-1.312-3.132-1.312-1.243 0-2.272.437-3.088 1.312-.816.874-1.224 1.966-1.224 3.277 0 1.379.403 2.496 1.21 3.351.815.845 1.845 1.267 3.088 1.267 1.224 0 2.253-.422 3.088-1.267.835-.855 1.253-1.972 1.253-3.351zm12.738-7.925v1.749c.719-.719 1.495-1.258 2.331-1.617a6.694 6.694 0 012.68-.539c2.069 0 3.827.781 5.274 2.345s2.17 3.569 2.17 6.016c0 2.36-.748 4.337-2.243 5.929-1.496 1.583-3.268 2.375-5.317 2.375-.913 0-1.763-.16-2.55-.481-.786-.33-1.568-.864-2.345-1.602v7.473h-3.948v-21.648h3.948zm4.181 3.264c-1.253 0-2.292.427-3.118 1.282-.825.854-1.238 1.971-1.238 3.35 0 1.408.413 2.549 1.238 3.423.826.865 1.865 1.297 3.118 1.297 1.214 0 2.233-.442 3.059-1.326.835-.883 1.253-2.01 1.253-3.379 0-1.36-.408-2.472-1.224-3.336-.816-.874-1.845-1.311-3.088-1.311zm24.77-3.264h3.963v15.85h-3.963v-1.675c-.776.738-1.558 1.272-2.345 1.602a6.574 6.574 0 01-2.535.481c-2.049 0-3.821-.792-5.317-2.375-1.495-1.592-2.243-3.569-2.243-5.929 0-2.447.723-4.452 2.17-6.016s3.205-2.345 5.274-2.345c.952 0 1.845.179 2.68.539.835.359 1.608.898 2.316 1.617v-1.749zm-4.18 3.264c-1.234 0-2.258.437-3.074 1.311-.816.864-1.224 1.976-1.224 3.336 0 1.369.413 2.496 1.238 3.379.836.884 1.86 1.326 3.074 1.326 1.253 0 2.292-.432 3.118-1.297.825-.874 1.238-2.015 1.238-3.423 0-1.379-.413-2.496-1.238-3.35-.826-.855-1.87-1.282-3.132-1.282z" fill="#343434"/></svg>