<svg width="115" height="17" fill="none" xmlns="http://www.w3.org/2000/svg"><path fill-rule="evenodd" clip-rule="evenodd" d="M18.308 16.506V8.282c0-2.332-1.27-3.44-3.402-3.44-1.772 0-3.305 1.037-3.976 2.074-.431-1.296-1.51-2.074-3.21-2.074-1.773 0-3.306 1.084-3.785 1.767V5.125H.893v11.381h3.042V8.848c.455-.636 1.342-1.343 2.396-1.343 1.245 0 1.724.754 1.724 1.814v7.187h3.067V8.824c.43-.612 1.317-1.32 2.395-1.32 1.246 0 1.725.755 1.725 1.815v7.187h3.066zm8.36.283c-3.809 0-6.108-2.733-6.108-5.985 0-3.228 2.3-5.962 6.108-5.962 3.833 0 6.133 2.734 6.133 5.962 0 3.252-2.3 5.985-6.133 5.985zm0-2.663c1.893 0 2.97-1.531 2.97-3.322 0-1.768-1.078-3.3-2.97-3.3-1.892 0-2.946 1.532-2.946 3.3 0 1.79 1.054 3.322 2.946 3.322zm19.236 2.38V8.471c0-2.215-1.222-3.629-3.761-3.629-1.893 0-3.306.896-4.049 1.767V5.125h-3.042v11.381h3.042V8.848c.503-.683 1.438-1.343 2.636-1.343 1.293 0 2.131.542 2.131 2.12v6.881h3.043zm8.384.283c-3.809 0-6.109-2.733-6.109-5.985 0-3.228 2.3-5.962 6.109-5.962 3.833 0 6.132 2.734 6.132 5.962 0 3.252-2.3 5.985-6.132 5.985zm0-2.663c1.892 0 2.97-1.531 2.97-3.322 0-1.768-1.078-3.3-2.97-3.3-1.893 0-2.947 1.532-2.947 3.3 0 1.79 1.054 3.322 2.947 3.322zm11.426-1.272c.503.73 1.629 1.272 2.611 1.272 1.773 0 2.947-1.32 2.947-3.299 0-1.979-1.174-3.322-2.947-3.322-.982 0-2.108.565-2.61 1.32v4.029zm0 3.652h-3.042V.79h3.042v5.797a4.482 4.482 0 013.57-1.744c2.946 0 5.126 2.262 5.126 5.985 0 3.794-2.204 5.962-5.127 5.962-1.389 0-2.659-.613-3.569-1.744v1.461zm20.984 0h-3.042v-1.178c-.79.92-2.156 1.461-3.665 1.461-1.844 0-4.024-1.225-4.024-3.77 0-2.663 2.18-3.676 4.024-3.676 1.533 0 2.899.495 3.665 1.39V9.201c0-1.154-1.006-1.908-2.54-1.908-1.245 0-2.394.447-3.377 1.343l-1.15-2.003c1.414-1.225 3.234-1.79 5.055-1.79 2.635 0 5.054 1.036 5.054 4.311v7.352zm-5.485-1.743c.982 0 1.94-.33 2.443-.99v-1.414c-.503-.66-1.461-.99-2.443-.99-1.198 0-2.18.613-2.18 1.72 0 1.06.982 1.674 2.18 1.674zm19.355 1.743V8.471c0-2.215-1.222-3.629-3.76-3.629-1.893 0-3.307.896-4.05 1.767V5.125h-3.041v11.381h3.042V8.848c.503-.683 1.437-1.343 2.635-1.343 1.293 0 2.132.542 2.132 2.12v6.881h3.042zm14.325 0l-4.719-6.22 4.575-5.161h-3.737l-4.383 5.066V.79h-3.043v15.717h3.043v-2.922l1.389-1.46 3.066 4.382h3.809z" fill="#343434"/></svg>