<svg width="73" height="73" fill="none" xmlns="http://www.w3.org/2000/svg"><path d="M43.954 26.004a2.898 2.898 0 100-5.797 2.898 2.898 0 000 5.797zm-15.594 0a2.898 2.898 0 100-5.797 2.898 2.898 0 000 5.797zm18.078 1H41.47a3.322 3.322 0 00-3.313 3.312v5.565c0 .562.437 1.04.998 1.06a1.035 1.035 0 001.072-1.035v-5.162a.423.423 0 01.387-.427.416.416 0 01.442.415v14.956a1.19 1.19 0 102.38 0v-7.383a.53.53 0 01.483-.535.518.518 0 01.553.517v7.401a1.19 1.19 0 102.38 0V30.744a.423.423 0 01.387-.427.416.416 0 01.442.415v5.15c0 .562.436 1.04.997 1.06a1.034 1.034 0 001.073-1.036v-5.59a3.322 3.322 0 00-3.313-3.312zm-15.593 0h-4.969a3.322 3.322 0 00-3.313 3.312v5.565c0 .562.437 1.04.998 1.06a1.035 1.035 0 001.073-1.035v-5.162a.423.423 0 01.386-.427.415.415 0 01.442.415v14.956a1.19 1.19 0 102.38 0v-7.383a.53.53 0 01.484-.535.518.518 0 01.552.517v7.401a1.19 1.19 0 102.38 0V30.744a.423.423 0 01.387-.427.415.415 0 01.442.415v5.15c0 .562.436 1.04.997 1.06a1.035 1.035 0 001.073-1.036v-5.59a3.322 3.322 0 00-3.312-3.312z" stroke="#343434"/><path d="M24.15 34.371h-4.97a3.322 3.322 0 00-3.312 3.313v5.565c0 .561.437 1.039.998 1.06a1.034 1.034 0 001.073-1.036v-5.161a.424.424 0 01.386-.427.415.415 0 01.442.414v14.957a1.19 1.19 0 102.38 0v-7.384a.53.53 0 01.483-.535.518.518 0 01.553.517v7.402a1.19 1.19 0 102.38 0V38.112a.424.424 0 01.387-.427.415.415 0 01.442.414v5.15c0 .562.436 1.04.997 1.06a1.034 1.034 0 001.073-1.036v-5.59a3.322 3.322 0 00-3.313-3.312zm-2.485-.828a2.898 2.898 0 100-5.797 2.898 2.898 0 000 5.797zm14.492 0a2.898 2.898 0 100-5.797 2.898 2.898 0 000 5.797zm14.493 0a2.898 2.898 0 100-5.797 2.898 2.898 0 000 5.797zm-12.008.828h-4.97a3.322 3.322 0 00-3.312 3.313v5.565c0 .561.437 1.039.998 1.06a1.034 1.034 0 001.073-1.036v-5.161a.423.423 0 01.386-.427.416.416 0 01.442.414v14.957a1.19 1.19 0 102.38 0v-7.384a.53.53 0 01.483-.535.518.518 0 01.553.517v7.402a1.19 1.19 0 102.38 0V38.112a.423.423 0 01.387-.427.416.416 0 01.442.414v5.15c0 .562.436 1.04.997 1.06a1.034 1.034 0 001.073-1.036v-5.59a3.322 3.322 0 00-3.312-3.312zm14.492 0h-4.969a3.322 3.322 0 00-3.313 3.313v5.565c0 .561.437 1.039.998 1.06a1.033 1.033 0 001.073-1.036v-5.161a.423.423 0 01.386-.427.416.416 0 01.442.414v14.957a1.19 1.19 0 102.38 0v-7.384a.53.53 0 01.484-.535.518.518 0 01.552.517v7.402a1.19 1.19 0 102.38 0V38.112a.423.423 0 01.388-.427.416.416 0 01.441.414v5.15c0 .562.436 1.04.997 1.06a1.034 1.034 0 001.073-1.036v-5.59a3.322 3.322 0 00-3.312-3.312z" fill="#F4F4F4" stroke="#343434"/><path d="M14.976 14.899l21.79-8.521L58.2 15.76l8.521 21.79-9.382 21.434-21.79 8.522-21.434-9.383-8.522-21.79 9.383-21.434z" stroke="#343434"/><path d="M66.79 37.397h0v.001h0l-.067.195.09.185h0v.001h0l.006.013.028.065a4.1 4.1 0 01.104.28c.086.251.197.631.29 1.13.184.996.295 2.468-.017 4.336-.622 3.727-2.94 9.085-9.847 15.402C50.462 65.33 45.005 67.442 41.323 68c-1.843.278-3.252.168-4.19-.006a7.411 7.411 0 01-1.051-.269 4.065 4.065 0 01-.312-.12l-.01-.005h0l-.001-.001h0l-.24-.119-.23.134h0-.001v.001l-.01.004-.052.028c-.05.025-.13.062-.24.105a6.307 6.307 0 01-1.003.3c-.897.196-2.253.324-4.044.024-3.58-.6-8.942-2.918-15.858-9.928-6.912-7.006-9.01-12.452-9.42-16.09-.206-1.82.01-3.203.269-4.12.13-.46.27-.804.376-1.029a3.872 3.872 0 01.16-.303l.006-.01h0v-.001h0l.122-.187-.058-.215h0l-.001-.004-.005-.018a7.242 7.242 0 01-.085-.416 12.377 12.377 0 01-.151-1.31c-.075-1.14-.05-2.779.357-4.762.81-3.958 3.141-9.316 9.283-14.8 6.232-5.565 9.372-7.699 12.072-8.465 1.34-.38 2.593-.43 4.113-.367.548.023 1.142.06 1.788.103 1.117.072 2.392.154 3.86.183 1.868.037 3.396-.069 4.712-.16.34-.024.667-.047.981-.066 1.537-.092 2.786-.096 4.103.265 2.646.727 5.688 2.96 11.662 9.351 5.907 6.318 8.025 11.774 8.684 15.618.33 1.925.295 3.453.18 4.492-.057.52-.135.918-.196 1.182a5.595 5.595 0 01-.097.364l-.005.014v.001z" stroke="#343434"/><path d="M34.407 64.621v6.5l1.75-6.5v6.5l1.75-6.5v6.5m-3.5-69.154v6.5l1.75-6.5v6.5l1.75-6.5v6.5M14.328 54.29L9.55 58.694l5.965-3.12-4.779 4.407 5.966-3.12-4.78 4.406M60.393 11.82l-4.78 4.406 5.966-3.12-4.78 4.407 5.966-3.12-4.779 4.406M8.16 33.808l-6.497-.229 6.435 1.977-6.496-.228 6.434 1.977-6.496-.228m69.234-1.067l-6.496-.228 6.435 1.978-6.496-.229 6.434 1.978-6.496-.229M18.01 15.05l-4.494-4.696 3.23 5.906-4.495-4.697 3.23 5.907-4.494-4.697m50.34 47.543l-4.494-4.696 3.23 5.906-4.494-4.696 3.23 5.906-4.495-4.696" stroke="#343434" stroke-linecap="round" stroke-linejoin="round"/></svg>