<svg width="73" height="73" fill="none" xmlns="http://www.w3.org/2000/svg"><path d="M39.436 40.226l-.751-.684c-2.667-2.418-4.428-4.019-4.428-5.971 0-1.6 1.253-2.848 2.848-2.848.901 0 1.766.42 2.33 1.077a3.114 3.114 0 012.331-1.077 2.818 2.818 0 012.849 2.848c0 1.952-1.761 3.553-4.428 5.971l-.751.684zm17.755 12.69l-.47-.429c-1.673-1.517-2.778-2.52-2.778-3.745 0-1.003.786-1.786 1.787-1.786a1.95 1.95 0 011.461.676 1.953 1.953 0 011.462-.676c1 0 1.786.783 1.786 1.786 0 1.225-1.104 2.228-2.777 3.745l-.47.429zM18.54 49.508l-.568-.518c-2.02-1.832-3.355-3.044-3.355-4.524 0-1.212.95-2.157 2.158-2.157a2.36 2.36 0 011.766.816 2.36 2.36 0 011.765-.816c1.208 0 2.158.945 2.158 2.157 0 1.48-1.334 2.692-3.355 4.524l-.569.518z" fill="#FFD249"/><path d="M35.495 63.226s1.073-15.876 0-17.593c-1.072-1.716-2.788-3.969-4.29-7.08-1.501-3.11-3.432-12.229-2.467-14.16.965-1.93 2.467 1.717 2.467 1.717l1.716 5.149V13.88s0-1.716 1.552-1.716c1.553 0 2.095 1.716 2.095 1.716m0 0v11.8m0-11.8s-.322-4.182 1.503-4.505c1.824-.323 2.359 2.789 2.359 2.789m0 0s.92-1.609 1.932-1.609c1.609 0 2.144 2.467 2.144 2.467v3.433m-4.076-4.291V25.68m4.076-9.225s1.566-.468 2.36 0c.939.553 1.063 3.215 1.063 3.215v16.309c0 5.471-1.813 7.46-2.135 9.654-1.043 7.13-.643 17.593-.643 17.593m-.645-46.771v10.298m10.131 36.474s.672-8.086 0-8.96c-.672-.875-1.746-2.022-2.686-3.606-.94-1.585-2.149-6.229-1.544-7.212.604-.983 1.544.874 1.544.874l1.074 2.623v-8.851s0-.875.972-.875 1.312.875 1.312.875m0 0v6.01m0-6.01s-.202-2.13.94-2.295c1.143-.164 1.477 1.42 1.477 1.42m0 0s.576-.819 1.21-.819c1.007 0 1.342 1.257 1.342 1.257v1.748m-2.552-2.186v6.884m2.552-4.698s.98-.239 1.478 0c.587.282.665 1.637.665 1.637v8.306c0 2.787-1.135 3.8-1.336 4.918-.654 3.63-.403 8.96-.403 8.96m-.404-23.821v5.245M15.29 63.226s.832-10.01 0-11.093c-.831-1.082-2.161-2.502-3.325-4.464-1.164-1.962-2.66-7.711-1.912-8.929.748-1.217 1.912 1.083 1.912 1.083l1.33 3.246V32.111s0-1.082 1.203-1.082 1.624 1.082 1.624 1.082m0 0v7.441m0-7.44s-.25-2.638 1.164-2.841c1.415-.204 1.829 1.758 1.829 1.758m0 0s.713-1.014 1.497-1.014c1.248 0 1.663 1.555 1.663 1.555v2.165m-3.16-2.706v8.523m3.16-5.817s1.213-.295 1.829 0c.727.349.824 2.027.824 2.027v10.284c0 3.45-1.406 4.703-1.655 6.087-.81 4.496-.499 11.093-.499 11.093m-.5-29.491v6.493" stroke="#343434"/></svg>