<svg width="73" height="73" fill="none" xmlns="http://www.w3.org/2000/svg"><path d="M57.352 19.712l6.799-9.806m-9.545 25.496L68.204 22.85M10.283 11.084l8.368 13.859m5.884-20.92l1.7 6.93M10.807 28.21l7.975 7.715M5.446 22.854L7.8 25.468m14.945 32.294s-3.66 1.046-4.837 4.576c-.984 2.951 8.91 2.506 16.84.994M48.37 51.617s6.086-1.619 7.845.915c1.414 2.036-.21 3.762-3.109 5.23m0 0l3.983 1.96m-3.983-1.96c-2.578 1.306-6.163 2.409-9.52 3.346m0 0c-1.596.446-3.14.855-4.498 1.23-1.307.36-2.786.698-4.341.994m8.84-2.224l4.783 2.93m-13.623-.706l-.669-3.61M7.276 42.984s.327 2.088 1.9 4.05m11.175 9.025s.811-2.519-.463-4.445m-10.712-4.58a8.594 8.594 0 002.676 2.226c.212.113.415.213.61.3m-3.286-2.525l2.676-3.266m-2.676 7.845l3.286-2.054m0 0c2.354 1.055 3.505.332 4.745.38m0 0c.555.022 1.129.198 1.836.758.351.278.628.588.845.916m-2.681-1.674v-3.556m2.68 5.23l-3.459 2.614m10.983 5.232s2.354-15.952 1.308-19.873c-1.046-3.922-4.834-6.904-5.622-12.029-.427-2.776-.262-6.669-.262-7.224 0-.555.047-4.786 2.223-5.458 1.408-.435 3.66.915 3.66.915s.93-3.214 2.616-3.53c1.034-.194 2.615.654 2.615.654s1.378-2.368 2.876-2.615c1.149-.19 2.876.784 2.876.784s1.905-2.656 3.661-2.615c2.058.048 3.661 4.512 3.661 4.512M44.8 54.884l-.792-16.848-3.391 1.55s4.977-1.944 7.452-4.183c2.73-2.47 4.142-4.327 5.23-7.845 1.131-3.658 1.046-6.276 1.046-8.89 0-2.616-.654-3.4-1.83-4.577-1.177-1.176-7.715-1.176-7.715-1.176s-4.88-.782-5.099.653c-.068.447.206.916.544 1.308m6.778 7.975V20.76m-21.965 2.876s2.02 2.236 3.66 2.092c1.162-.102 2.616-1.438 2.616-1.438m0 0s1.276 2.16 2.615 2.223c1.418.066 2.876-2.223 2.876-2.223m-5.491 0l-1.962-5.622m7.453 5.622s2.495 1.412 3.792.654m-3.792-.654l-1.83-8.498m5.622 9.152c.855-.5 1.307-1.013 1.438-2.092.13-1.079-1.81-7.975-1.81-7.975m.372 10.067s-3.094 2.451-3.792 4.706c-.558 1.805 0 4.838 0 4.838m3.792-9.544l6.406-4.184m-6.778-5.883c.455.528 1.025.915 1.025.915l5.753 2.876v2.092M22.182 38.934l1.96 2.222M27.15 64.69l-.785 3.53m-8.237-6.537l-3.269-1.046m39.878-9.413l.654-2.484m-.654-3.14s1.54-2.798 3.269-3.531m0 0l.654-4.053m-.654 4.053c1.485-.63 2.678.447 4.105.148m4.001-6.162s-.46 2.22-1.516 4.007m-2.485 2.155c.154-.032.311-.08.471-.148.828-.352 1.494-1.127 2.014-2.007m-2.485 2.155l4.001 2.075m-1.516-4.23l-2.014-3.092" stroke="#343434" stroke-linecap="round" stroke-linejoin="round"/></svg>