<svg width="104" height="106" fill="none" xmlns="http://www.w3.org/2000/svg"><g clip-path="url(#clip0_331_9584)" fill-rule="evenodd" clip-rule="evenodd" fill="#fff"><path d="M62.286 26.156c0-10.23 8.292-18.521 18.521-18.521 10.229 0 18.521 8.292 18.521 18.52v58.983l-7.865-4.676V26.283c0-5.912-4.792-10.705-10.705-10.705-5.912 0-10.705 4.793-10.705 10.705v41.448l-7.767-4.618V26.156z"/><path d="M19.466 76.007V20.656L51.58 40.134l31.131-20.19.583 55.661-7.901-4.698V36.096L51.58 50.586l-23.704-14.49V70.89l-8.411 5.116z"/><path d="M4.161 26.156c0-10.23 8.292-18.521 18.521-18.521 10.229 0 18.521 8.292 18.521 18.52v36.63l-7.865 4.784V26.282c0-5.912-4.793-10.705-10.705-10.705S11.928 20.37 11.928 26.282v54.309l-7.767 4.725v-59.16zM-8.485 98.841l-.015.01.015.024v-.034zm12.646-3.01l47.19-28.706L99.076 95.5v-4.654L52.362 63.072l-1.034-.615-1.027.625L4.16 91.148v4.682z"/><path d="M51.323 61.29l48.752 28.988v6.98L51.358 68.293 3.16 97.608v-7.023L51.323 61.29zm.011 2.334l-.514.312L5.162 91.711v2.34l46.185-28.093 46.73 27.785v-2.327L51.333 63.624zm-58.82 33.439v5.38l-2.388-3.927 2.389-1.453z"/></g><defs><clipPath id="clip0_331_9584"><path fill="#fff" transform="translate(.5 .625)" d="M0 0h103v105H0z"/></clipPath></defs></svg>