<svg width="44" height="44" viewBox="0 0 44 44" fill="none" xmlns="http://www.w3.org/2000/svg">
<g clip-path="url(#clip0_888_6437)">
<path fill-rule="evenodd" clip-rule="evenodd" d="M25.8145 10.7893C25.8145 6.99866 28.8873 3.92578 32.6779 3.92578C36.4685 3.92578 39.5414 6.99867 39.5414 10.7893V32.6464L36.6272 30.9136V10.8365C36.6272 8.64562 34.8511 6.86952 32.6601 6.86952C30.4692 6.86952 28.6931 8.64561 28.6931 10.8365V26.196L25.8145 24.4844V10.7893Z" fill="#343434"/>
<path fill-rule="evenodd" clip-rule="evenodd" d="M9.94629 29.2658V8.75236L21.8474 15.9705L33.3841 8.48828L33.6001 29.1168L30.672 27.3757V14.4741L21.8474 19.8437L13.0632 14.4741V27.3698L9.94629 29.2658Z" fill="#343434"/>
<path fill-rule="evenodd" clip-rule="evenodd" d="M4.27441 10.7893C4.27441 6.99866 7.3473 3.92578 11.1379 3.92578C14.9285 3.92578 18.0014 6.99867 18.0014 10.7893V24.3622L15.0869 26.1351V10.8365C15.0869 8.64562 13.3108 6.86952 11.1199 6.86952C8.92894 6.86952 7.15284 8.64561 7.15284 10.8365V30.9613L4.27441 32.7123V10.7893Z" fill="#343434"/>
<path fill-rule="evenodd" clip-rule="evenodd" d="M-0.412394 36.2482L-1.07227 36.6496L-0.412394 37.7344V36.2482ZM0.614741 39.4229L1.00652 40.067L2.06533 39.4229H0.614741ZM4.27419 38.0793L21.7692 27.4372L39.4473 37.9485V33.2948L22.7796 23.3843L21.7457 22.7695L20.7181 23.3946L4.27419 33.3974V38.0793ZM44.4297 37.7194V36.2573L45.072 36.6392L44.4297 37.7194ZM42.3282 39.6615H43.275L43.0277 40.0774L42.3282 39.6615Z" fill="#343434"/>
</g>
<defs>
<clipPath id="clip0_888_6437">
<rect width="44" height="44" fill="white"/>
</clipPath>
</defs>
</svg>
