<svg width="60" height="60" viewBox="0 0 60 60" fill="none" xmlns="http://www.w3.org/2000/svg">
<path d="M30 0C13.44 0 0 13.44 0 30C0 46.56 13.44 60 30 60C46.56 60 60 46.56 60 30C60 13.44 46.56 0 30 0ZM21.87 42.87L11.1 32.1C10.8223 31.8223 10.6019 31.4925 10.4516 31.1296C10.3013 30.7667 10.2239 30.3778 10.2239 29.985C10.2239 29.5922 10.3013 29.2033 10.4516 28.8404C10.6019 28.4775 10.8223 28.1477 11.1 27.87C11.3777 27.5923 11.7075 27.3719 12.0704 27.2216C12.4333 27.0713 12.8222 26.9939 13.215 26.9939C13.6078 26.9939 13.9967 27.0713 14.3596 27.2216C14.7225 27.3719 15.0523 27.5923 15.33 27.87L24 36.51L44.64 15.87C45.2009 15.3091 45.9617 14.9939 46.755 14.9939C47.5483 14.9939 48.3091 15.3091 48.87 15.87C49.4309 16.4309 49.7461 17.1917 49.7461 17.985C49.7461 18.7783 49.4309 19.5391 48.87 20.1L26.1 42.87C25.8225 43.1481 25.4928 43.3688 25.1299 43.5193C24.767 43.6698 24.3779 43.7473 23.985 43.7473C23.5921 43.7473 23.203 43.6698 22.8401 43.5193C22.4772 43.3688 22.1475 43.1481 21.87 42.87Z" fill="#FFD249"/>
</svg>
