<svg width="431" height="1205" viewBox="0 0 431 1205" fill="none" xmlns="http://www.w3.org/2000/svg">
<g clip-path="url(#clip0_257_7568)">
<rect width="1205" height="430" transform="matrix(0 1 -1 0 430.092 0)" fill="#F4F4F4"/>
<path d="M194.39 161.476L193.639 160.792C190.972 158.374 189.211 156.773 189.211 154.821C189.211 153.221 190.465 151.973 192.06 151.973C192.961 151.973 193.826 152.392 194.39 153.05C194.955 152.392 195.82 151.973 196.721 151.973C198.316 151.973 199.569 153.221 199.569 154.821C199.569 156.773 197.808 158.374 195.141 160.792L194.39 161.476Z" fill="#FFD249"/>
<path d="M212.146 174.166L211.675 173.737C210.002 172.22 208.898 171.217 208.898 169.992C208.898 168.989 209.684 168.206 210.685 168.206C211.25 168.206 211.792 168.469 212.146 168.882C212.5 168.469 213.042 168.206 213.608 168.206C214.608 168.206 215.394 168.989 215.394 169.992C215.394 171.217 214.29 172.22 212.617 173.737L212.146 174.166Z" fill="#FFD249"/>
<path d="M173.495 170.758L172.926 170.24C170.906 168.408 169.572 167.196 169.572 165.716C169.572 164.504 170.521 163.559 171.73 163.559C172.413 163.559 173.068 163.876 173.495 164.375C173.923 163.876 174.578 163.559 175.261 163.559C176.469 163.559 177.419 164.504 177.419 165.716C177.419 167.196 176.085 168.408 174.064 170.24L173.495 170.758Z" fill="#FFD249"/>
<path d="M190.45 184.476C190.45 184.476 191.523 168.6 190.45 166.883C189.377 165.167 187.661 162.915 186.16 159.804C184.658 156.693 182.727 147.574 183.692 145.643C184.658 143.712 186.16 147.36 186.16 147.36L187.875 152.509V135.13C187.875 135.13 187.875 133.414 189.428 133.414C190.98 133.414 191.523 135.13 191.523 135.13M191.523 135.13V146.93M191.523 135.13C191.523 135.13 191.201 130.948 193.025 130.625C194.85 130.302 195.384 133.414 195.384 133.414M195.384 133.414C195.384 133.414 196.304 131.805 197.316 131.805C198.925 131.805 199.461 134.272 199.461 134.272V137.705M195.384 133.414V146.93M199.461 137.705C199.461 137.705 201.027 137.237 201.821 137.705C202.759 138.258 202.884 140.919 202.884 140.919C202.884 140.919 202.884 151.758 202.884 157.229C202.884 162.7 201.07 164.688 200.749 166.883C199.705 174.013 200.105 184.476 200.105 184.476M199.461 137.705V148.003" stroke="#343434"/>
<path d="M209.592 184.477C209.592 184.477 210.264 176.391 209.592 175.516C208.92 174.642 207.846 173.495 206.906 171.911C205.966 170.326 204.757 165.682 205.362 164.699C205.966 163.715 206.906 165.573 206.906 165.573L207.98 168.196V159.345C207.98 159.345 207.98 158.47 208.952 158.47C209.924 158.47 210.264 159.345 210.264 159.345M210.264 159.345V165.354M210.264 159.345C210.264 159.345 210.062 157.215 211.204 157.05C212.347 156.885 212.681 158.47 212.681 158.47M212.681 158.47C212.681 158.47 213.257 157.651 213.891 157.651C214.898 157.651 215.233 158.908 215.233 158.908V160.656M212.681 158.47V165.354M215.233 160.656C215.233 160.656 216.214 160.418 216.711 160.656C217.298 160.937 217.377 162.293 217.377 162.293C217.377 162.293 217.377 167.813 217.377 170.599C217.377 173.386 216.241 174.399 216.04 175.516C215.386 179.148 215.637 184.477 215.637 184.477M215.233 160.656V165.901" stroke="#343434"/>
<path d="M170.245 184.476C170.245 184.476 171.077 174.465 170.245 173.383C169.414 172.301 168.084 170.881 166.92 168.919C165.756 166.957 164.26 161.208 165.008 159.99C165.756 158.773 166.92 161.073 166.92 161.073L168.25 164.319V153.361C168.25 153.361 168.25 152.279 169.453 152.279C170.657 152.279 171.077 153.361 171.077 153.361M171.077 153.361V160.802M171.077 153.361C171.077 153.361 170.827 150.724 172.241 150.521C173.656 150.317 174.07 152.279 174.07 152.279M174.07 152.279C174.07 152.279 174.783 151.265 175.567 151.265C176.815 151.265 177.23 152.82 177.23 152.82V154.985M174.07 152.279V160.802M177.23 154.985C177.23 154.985 178.443 154.69 179.059 154.985C179.786 155.334 179.883 157.012 179.883 157.012C179.883 157.012 179.883 163.846 179.883 167.296C179.883 170.745 178.477 171.999 178.228 173.383C177.419 177.879 177.729 184.476 177.729 184.476M177.23 154.985V161.478" stroke="#343434"/>
<path d="M190.326 1300.37L190.326 1019.09" stroke="#FFD249" stroke-width="4"/>
<path d="M190.326 225V366.948C202.588 366.948 214.575 370.584 224.771 377.397C234.967 384.21 242.914 393.893 247.606 405.222C252.299 416.551 253.527 429.017 251.135 441.044C248.742 453.071 242.837 464.118 234.167 472.789C225.496 481.46 214.448 487.365 202.422 489.757C190.395 492.149 177.929 490.921 166.6 486.229C155.271 481.536 145.587 473.589 138.775 463.394C131.962 453.198 128.326 441.211 128.326 428.948H84.3259" stroke="#FFD249" stroke-width="4"/>
<path d="M190.326 755.891V897.839C202.588 897.839 214.575 901.475 224.771 908.288C234.967 915.1 242.914 924.783 247.606 936.112C252.299 947.442 253.527 959.908 251.135 971.934C248.742 983.961 242.837 995.009 234.167 1003.68C225.496 1012.35 214.448 1018.26 202.422 1020.65C190.395 1023.04 177.929 1021.81 166.6 1017.12C155.271 1012.43 145.587 1004.48 138.775 994.284C131.962 984.088 128.326 972.101 128.326 959.839H84.3259" stroke="#FFD249" stroke-width="4"/>
<path d="M192.149 489.945V631.894C179.886 631.894 167.899 635.53 157.704 642.342C147.508 649.155 139.561 658.838 134.868 670.167C130.176 681.496 128.948 693.962 131.34 705.989C133.733 718.016 139.637 729.063 148.308 737.734C156.979 746.405 168.026 752.31 180.053 754.702C192.08 757.095 204.546 755.867 215.875 751.174C227.204 746.481 236.887 738.535 243.7 728.339C250.513 718.143 254.149 706.156 254.149 693.894H282.092" stroke="#FFD249" stroke-width="4"/>
<path d="M190.398 -43.4063V98.542C178.136 98.542 166.149 102.178 155.953 108.991C145.757 115.804 137.81 125.487 133.118 136.816C128.425 148.145 127.197 160.611 129.59 172.638C131.982 184.664 137.887 195.712 146.558 204.383C155.228 213.053 166.276 218.958 178.303 221.351C190.329 223.743 202.796 222.515 214.125 217.823C225.454 213.13 235.137 205.183 241.949 194.987C248.762 184.792 252.398 172.804 252.398 160.542H296.398" stroke="#FFD249" stroke-width="4"/>
<rect x="168.257" y="402.484" width="40.8089" height="54" rx="1.5" stroke="#343434"/>
<path d="M175.484 412.869H202.984" stroke="#343434"/>
<path d="M175.484 421.75H202.984" stroke="#343434"/>
<path d="M175.484 430.631H202.984" stroke="#343434"/>
<path d="M175.484 439.512H202.984" stroke="#343434"/>
<path d="M175.484 448.391H202.984" stroke="#343434"/>
<circle cx="209.566" cy="439.511" r="11.4583" fill="#FFD249"/>
<path d="M204.982 438.651L208.993 444.38L214.149 434.641" stroke="#343434"/>
<path d="M199.255 684.57C200.856 684.57 202.154 683.273 202.154 681.672C202.154 680.071 200.856 678.773 199.255 678.773C197.654 678.773 196.357 680.071 196.357 681.672C196.357 683.273 197.654 684.57 199.255 684.57Z" stroke="#343434"/>
<path d="M183.661 684.57C185.262 684.57 186.56 683.273 186.56 681.672C186.56 680.071 185.262 678.773 183.661 678.773C182.061 678.773 180.763 680.071 180.763 681.672C180.763 683.273 182.061 684.57 183.661 684.57Z" stroke="#343434"/>
<path d="M201.74 685.57H196.771C195.893 685.573 195.052 685.923 194.431 686.543C193.811 687.164 193.461 688.005 193.458 688.883V694.448C193.458 695.009 193.895 695.487 194.456 695.507C194.595 695.512 194.733 695.489 194.863 695.44C194.993 695.39 195.112 695.315 195.212 695.218C195.312 695.121 195.392 695.006 195.446 694.878C195.501 694.75 195.529 694.612 195.529 694.473V689.311C195.527 689.204 195.566 689.101 195.638 689.021C195.71 688.942 195.809 688.893 195.915 688.884C195.972 688.88 196.029 688.888 196.082 688.907C196.136 688.926 196.184 688.956 196.226 688.995C196.267 689.034 196.3 689.081 196.323 689.133C196.345 689.185 196.357 689.241 196.357 689.298V704.255C196.357 704.571 196.482 704.873 196.705 705.097C196.929 705.32 197.231 705.445 197.547 705.445C197.863 705.445 198.166 705.32 198.389 705.097C198.612 704.873 198.738 704.571 198.738 704.255V696.871C198.736 696.737 198.784 696.608 198.874 696.509C198.964 696.41 199.087 696.348 199.22 696.336C199.291 696.331 199.362 696.341 199.429 696.365C199.496 696.389 199.557 696.426 199.609 696.475C199.661 696.523 199.702 696.582 199.73 696.647C199.758 696.712 199.773 696.783 199.773 696.854V704.255C199.773 704.571 199.898 704.873 200.121 705.097C200.345 705.32 200.647 705.445 200.963 705.445C201.279 705.445 201.582 705.32 201.805 705.097C202.028 704.873 202.154 704.571 202.154 704.255V689.311C202.152 689.204 202.191 689.101 202.263 689.021C202.335 688.942 202.434 688.893 202.54 688.884C202.597 688.88 202.654 688.888 202.707 688.907C202.761 688.926 202.809 688.956 202.851 688.995C202.892 689.034 202.925 689.081 202.948 689.133C202.97 689.185 202.982 689.241 202.982 689.298V694.449C202.982 695.01 203.418 695.488 203.979 695.508C204.118 695.513 204.257 695.49 204.387 695.441C204.517 695.391 204.636 695.315 204.736 695.219C204.836 695.122 204.916 695.006 204.97 694.878C205.024 694.75 205.052 694.612 205.052 694.473V688.883C205.049 688.005 204.7 687.164 204.079 686.543C203.458 685.923 202.617 685.573 201.74 685.57Z" stroke="#343434"/>
<path d="M186.146 685.57H181.177C180.299 685.573 179.458 685.923 178.838 686.543C178.217 687.164 177.867 688.005 177.865 688.883V694.448C177.865 695.009 178.301 695.487 178.862 695.507C179.001 695.512 179.14 695.489 179.27 695.44C179.399 695.39 179.518 695.315 179.618 695.218C179.718 695.121 179.798 695.006 179.852 694.878C179.907 694.75 179.935 694.612 179.935 694.473V689.311C179.933 689.204 179.973 689.101 180.044 689.021C180.116 688.942 180.215 688.893 180.321 688.884C180.378 688.88 180.435 688.888 180.488 688.907C180.542 688.926 180.591 688.956 180.632 688.995C180.674 689.034 180.707 689.081 180.729 689.133C180.752 689.185 180.763 689.241 180.763 689.298V704.255C180.763 704.571 180.888 704.873 181.112 705.097C181.335 705.32 181.638 705.445 181.953 705.445C182.269 705.445 182.572 705.32 182.795 705.097C183.018 704.873 183.144 704.571 183.144 704.255V696.871C183.142 696.737 183.191 696.608 183.28 696.509C183.37 696.41 183.494 696.348 183.627 696.336C183.698 696.331 183.769 696.341 183.835 696.365C183.902 696.389 183.964 696.426 184.015 696.475C184.067 696.523 184.108 696.582 184.137 696.647C184.165 696.712 184.179 696.783 184.179 696.854V704.255C184.179 704.571 184.304 704.873 184.528 705.097C184.751 705.32 185.054 705.445 185.369 705.445C185.685 705.445 185.988 705.32 186.211 705.097C186.434 704.873 186.56 704.571 186.56 704.255V689.311C186.558 689.204 186.598 689.101 186.669 689.021C186.741 688.942 186.84 688.893 186.946 688.884C187.003 688.88 187.06 688.888 187.113 688.907C187.167 688.926 187.216 688.956 187.257 688.995C187.299 689.034 187.332 689.081 187.354 689.133C187.377 689.185 187.388 689.241 187.388 689.298V694.449C187.388 695.01 187.824 695.488 188.385 695.508C188.524 695.513 188.663 695.49 188.793 695.441C188.923 695.391 189.042 695.315 189.142 695.219C189.242 695.122 189.322 695.006 189.376 694.878C189.43 694.75 189.458 694.612 189.458 694.473V688.883C189.456 688.005 189.106 687.164 188.485 686.543C187.865 685.923 187.023 685.573 186.146 685.57Z" stroke="#343434"/>
<path d="M179.45 692.938H174.482C173.604 692.94 172.763 693.29 172.142 693.911C171.522 694.531 171.172 695.372 171.169 696.25V701.815C171.169 702.377 171.606 702.854 172.167 702.874C172.306 702.88 172.444 702.857 172.574 702.807C172.704 702.757 172.823 702.682 172.923 702.585C173.023 702.489 173.103 702.373 173.157 702.245C173.211 702.117 173.24 701.979 173.24 701.84V696.678C173.238 696.571 173.277 696.468 173.349 696.389C173.421 696.309 173.52 696.26 173.626 696.251C173.683 696.247 173.74 696.255 173.793 696.274C173.846 696.293 173.895 696.323 173.937 696.362C173.978 696.401 174.011 696.448 174.034 696.5C174.056 696.552 174.068 696.608 174.068 696.665V711.622C174.068 711.938 174.193 712.241 174.416 712.464C174.64 712.687 174.942 712.812 175.258 712.812C175.574 712.812 175.877 712.687 176.1 712.464C176.323 712.241 176.448 711.938 176.448 711.622V704.238C176.447 704.105 176.495 703.975 176.585 703.876C176.674 703.777 176.798 703.715 176.931 703.703C177.002 703.698 177.073 703.708 177.14 703.732C177.207 703.756 177.268 703.793 177.32 703.842C177.372 703.89 177.413 703.949 177.441 704.014C177.469 704.079 177.484 704.15 177.484 704.221V711.622C177.484 711.938 177.609 712.241 177.832 712.464C178.056 712.687 178.358 712.812 178.674 712.812C178.99 712.812 179.293 712.687 179.516 712.464C179.739 712.241 179.865 711.938 179.865 711.622V696.678C179.863 696.571 179.902 696.468 179.974 696.389C180.046 696.309 180.145 696.26 180.251 696.251C180.308 696.247 180.365 696.255 180.418 696.274C180.471 696.293 180.52 696.323 180.562 696.362C180.603 696.401 180.636 696.448 180.659 696.5C180.681 696.552 180.693 696.608 180.693 696.665V701.816C180.693 702.378 181.129 702.855 181.69 702.876C181.829 702.881 181.968 702.858 182.098 702.808C182.228 702.758 182.347 702.683 182.447 702.586C182.547 702.489 182.627 702.373 182.681 702.245C182.735 702.117 182.763 701.979 182.763 701.84V696.25C182.76 695.372 182.411 694.531 181.79 693.911C181.169 693.29 180.328 692.94 179.45 692.938Z" fill="#F4F4F4" stroke="#343434"/>
<path d="M176.966 692.109C178.567 692.109 179.865 690.812 179.865 689.211C179.865 687.61 178.567 686.312 176.966 686.312C175.365 686.312 174.068 687.61 174.068 689.211C174.068 690.812 175.365 692.109 176.966 692.109Z" fill="#F4F4F4" stroke="#343434"/>
<path d="M191.458 692.109C193.059 692.109 194.357 690.812 194.357 689.211C194.357 687.61 193.059 686.312 191.458 686.312C189.857 686.312 188.56 687.61 188.56 689.211C188.56 690.812 189.857 692.109 191.458 692.109Z" fill="#F4F4F4" stroke="#343434"/>
<path d="M205.95 692.109C207.551 692.109 208.849 690.812 208.849 689.211C208.849 687.61 207.551 686.312 205.95 686.312C204.35 686.312 203.052 687.61 203.052 689.211C203.052 690.812 204.35 692.109 205.95 692.109Z" fill="#F4F4F4" stroke="#343434"/>
<path d="M193.943 692.938H188.974C188.096 692.94 187.255 693.29 186.634 693.911C186.014 694.531 185.664 695.372 185.661 696.25V701.815C185.661 702.377 186.098 702.854 186.659 702.874C186.798 702.88 186.936 702.857 187.066 702.807C187.196 702.757 187.315 702.682 187.415 702.585C187.515 702.489 187.595 702.373 187.649 702.245C187.704 702.117 187.732 701.979 187.732 701.84V696.678C187.73 696.571 187.769 696.468 187.841 696.389C187.913 696.309 188.012 696.26 188.118 696.251C188.175 696.247 188.232 696.255 188.285 696.274C188.339 696.293 188.388 696.323 188.429 696.362C188.47 696.401 188.503 696.448 188.526 696.5C188.548 696.552 188.56 696.608 188.56 696.665V711.622C188.56 711.938 188.685 712.241 188.908 712.464C189.132 712.687 189.435 712.812 189.75 712.812C190.066 712.812 190.369 712.687 190.592 712.464C190.815 712.241 190.941 711.938 190.941 711.622V704.238C190.939 704.105 190.988 703.975 191.077 703.876C191.167 703.777 191.29 703.715 191.424 703.703C191.494 703.698 191.565 703.708 191.632 703.732C191.699 703.756 191.76 703.793 191.812 703.842C191.864 703.89 191.905 703.949 191.933 704.014C191.962 704.079 191.976 704.15 191.976 704.221V711.622C191.976 711.938 192.101 712.241 192.324 712.464C192.548 712.687 192.851 712.812 193.166 712.812C193.482 712.812 193.785 712.687 194.008 712.464C194.231 712.241 194.357 711.938 194.357 711.622V696.678C194.355 696.571 194.394 696.468 194.466 696.389C194.538 696.309 194.637 696.26 194.743 696.251C194.8 696.247 194.857 696.255 194.91 696.274C194.964 696.293 195.013 696.323 195.054 696.362C195.095 696.401 195.128 696.448 195.151 696.5C195.173 696.552 195.185 696.608 195.185 696.665V701.816C195.185 702.378 195.621 702.855 196.182 702.876C196.321 702.881 196.46 702.858 196.59 702.808C196.72 702.758 196.839 702.683 196.939 702.586C197.039 702.489 197.119 702.373 197.173 702.245C197.227 702.117 197.255 701.979 197.255 701.84V696.25C197.253 695.372 196.903 694.531 196.282 693.911C195.661 693.29 194.82 692.94 193.943 692.938Z" fill="#F4F4F4" stroke="#343434"/>
<path d="M208.435 692.938H203.466C202.588 692.94 201.747 693.29 201.127 693.911C200.506 694.531 200.156 695.372 200.154 696.25V701.815C200.154 702.377 200.59 702.854 201.151 702.874C201.29 702.88 201.429 702.857 201.559 702.807C201.689 702.757 201.807 702.682 201.907 702.585C202.007 702.489 202.087 702.373 202.141 702.245C202.196 702.117 202.224 701.979 202.224 701.84V696.678C202.223 696.571 202.262 696.468 202.333 696.389C202.405 696.309 202.504 696.26 202.611 696.251C202.667 696.247 202.724 696.255 202.777 696.274C202.831 696.293 202.88 696.323 202.921 696.362C202.963 696.401 202.996 696.448 203.018 696.5C203.041 696.552 203.052 696.608 203.052 696.665V711.622C203.052 711.938 203.177 712.241 203.401 712.464C203.624 712.687 203.927 712.812 204.242 712.812C204.558 712.812 204.861 712.687 205.084 712.464C205.307 712.241 205.433 711.938 205.433 711.622V704.238C205.431 704.105 205.48 703.975 205.569 703.876C205.659 703.777 205.783 703.715 205.916 703.703C205.987 703.698 206.058 703.708 206.124 703.732C206.191 703.756 206.253 703.793 206.304 703.842C206.356 703.89 206.397 703.949 206.426 704.014C206.454 704.079 206.468 704.15 206.468 704.221V711.622C206.468 711.938 206.593 712.241 206.817 712.464C207.04 712.687 207.343 712.812 207.658 712.812C207.974 712.812 208.277 712.687 208.5 712.464C208.723 712.241 208.849 711.938 208.849 711.622V696.678C208.848 696.571 208.887 696.468 208.958 696.389C209.03 696.309 209.129 696.26 209.236 696.251C209.292 696.247 209.349 696.255 209.402 696.274C209.456 696.293 209.505 696.323 209.546 696.362C209.588 696.401 209.621 696.448 209.643 696.5C209.666 696.552 209.677 696.608 209.677 696.665V701.816C209.677 702.378 210.113 702.855 210.674 702.876C210.814 702.881 210.952 702.858 211.082 702.808C211.212 702.758 211.331 702.683 211.431 702.586C211.531 702.489 211.611 702.373 211.665 702.245C211.72 702.117 211.747 701.979 211.747 701.84V696.25C211.745 695.372 211.395 694.531 210.774 693.911C210.154 693.29 209.313 692.94 208.435 692.938Z" fill="#F4F4F4" stroke="#343434"/>
<path d="M170.277 673.465L192.067 664.944L213.501 674.326L222.022 696.117L212.64 717.55L190.849 726.072L169.416 716.689L160.894 694.899L170.277 673.465Z" stroke="#343434"/>
<path d="M222.091 695.964L222.091 695.965L222.091 695.965L222.091 695.965L222.023 696.16L222.113 696.344L222.113 696.345L222.113 696.345L222.114 696.346L222.114 696.346L222.12 696.359C222.126 696.372 222.135 696.394 222.148 696.424C222.172 696.484 222.209 696.577 222.252 696.703C222.338 696.955 222.448 697.335 222.541 697.833C222.725 698.83 222.836 700.302 222.525 702.169C221.902 705.897 219.584 711.254 212.677 717.572C205.762 723.897 200.306 726.009 196.623 726.565C194.78 726.843 193.372 726.734 192.434 726.56C191.965 726.473 191.613 726.37 191.382 726.291C191.267 726.251 191.182 726.218 191.128 726.195C191.101 726.184 191.082 726.175 191.071 726.17L191.061 726.165L191.06 726.165L191.06 726.165L191.059 726.164L191.059 726.164L190.82 726.046L190.59 726.179L190.589 726.18L190.589 726.18L190.589 726.18L190.588 726.181L190.579 726.185C190.569 726.191 190.551 726.2 190.526 726.212C190.476 726.237 190.396 726.274 190.287 726.318C190.068 726.406 189.732 726.521 189.283 726.619C188.386 726.814 187.03 726.942 185.239 726.642C181.66 726.042 176.297 723.723 169.381 716.713C162.47 709.707 160.372 704.262 159.962 700.624C159.756 698.803 159.971 697.421 160.23 696.503C160.36 696.044 160.501 695.7 160.607 695.475C160.66 695.362 160.704 695.28 160.733 695.227C160.748 695.201 160.759 695.183 160.766 695.172L160.772 695.161L160.772 695.161L160.773 695.16L160.773 695.16L160.894 694.974L160.836 694.759L160.836 694.758L160.836 694.758L160.836 694.758L160.835 694.755L160.831 694.737C160.826 694.72 160.82 694.693 160.812 694.656C160.795 694.582 160.772 694.47 160.746 694.321C160.694 694.023 160.631 693.579 160.594 693.01C160.52 691.872 160.545 690.232 160.951 688.249C161.761 684.29 164.093 678.933 170.235 673.448C176.466 667.884 179.606 665.75 182.306 664.984C183.646 664.603 184.9 664.554 186.42 664.617C186.968 664.639 187.561 664.678 188.208 664.719C189.325 664.791 190.6 664.873 192.068 664.903C193.936 664.94 195.463 664.834 196.779 664.742C197.12 664.719 197.446 664.696 197.761 664.677C199.298 664.584 200.547 664.581 201.864 664.942C204.51 665.668 207.551 667.902 213.526 674.293C219.432 680.611 221.551 686.067 222.209 689.911C222.539 691.835 222.504 693.363 222.39 694.403C222.332 694.923 222.255 695.321 222.193 695.585C222.163 695.717 222.136 695.815 222.117 695.879C222.108 695.911 222.101 695.934 222.096 695.948L222.091 695.963L222.091 695.964Z" stroke="#343434"/>
<path d="M189.708 723.188V729.688L191.458 723.188V729.688L193.208 723.188V729.688" stroke="#343434" stroke-linecap="round" stroke-linejoin="round"/>
<path d="M189.708 660.533V667.033L191.458 660.533V667.033L193.208 660.533V667.033" stroke="#343434" stroke-linecap="round" stroke-linejoin="round"/>
<path d="M169.629 712.855L164.85 717.261L170.815 714.142L166.036 718.548L172.002 715.428L167.223 719.834" stroke="#343434" stroke-linecap="round" stroke-linejoin="round"/>
<path d="M215.694 670.386L210.915 674.792L216.88 671.673L212.101 676.079L218.066 672.959L213.287 677.365" stroke="#343434" stroke-linecap="round" stroke-linejoin="round"/>
<path d="M163.46 692.374L156.964 692.145L163.398 694.123L156.902 693.894L163.337 695.872L156.841 695.643" stroke="#343434" stroke-linecap="round" stroke-linejoin="round"/>
<path d="M226.075 694.578L219.579 694.349L226.014 696.327L219.518 696.098L225.952 698.075L219.456 697.847" stroke="#343434" stroke-linecap="round" stroke-linejoin="round"/>
<path d="M173.31 673.616L168.816 668.92L172.046 674.826L167.552 670.13L170.782 676.036L166.288 671.34" stroke="#343434" stroke-linecap="round" stroke-linejoin="round"/>
<path d="M216.628 718.883L212.134 714.187L215.364 720.093L210.87 715.397L214.099 721.303L209.605 716.606" stroke="#343434" stroke-linecap="round" stroke-linejoin="round"/>
<path d="M210.235 942.982L217.034 933.176M207.49 958.671L221.087 946.12" stroke="#343434" stroke-linecap="round" stroke-linejoin="round"/>
<path d="M163.167 934.354L171.535 948.213" stroke="#343434" stroke-linecap="round" stroke-linejoin="round"/>
<path d="M177.418 927.293L179.118 934.222" stroke="#343434" stroke-linecap="round" stroke-linejoin="round"/>
<path d="M163.69 951.48L171.666 959.194" stroke="#343434" stroke-linecap="round" stroke-linejoin="round"/>
<path d="M158.33 946.123L160.683 948.738" stroke="#343434" stroke-linecap="round" stroke-linejoin="round"/>
<path d="M175.629 981.032C175.629 981.032 171.968 982.077 170.791 985.607C169.807 988.559 179.701 988.114 187.631 986.602M201.255 974.886C201.255 974.886 207.34 973.268 209.099 975.801C210.513 977.837 208.89 979.563 205.99 981.032M205.99 981.032L209.974 982.992M205.99 981.032C203.413 982.337 199.827 983.44 196.471 984.378M196.471 984.378C194.875 984.824 193.331 985.232 191.972 985.607C190.665 985.968 189.186 986.305 187.631 986.602M196.471 984.378L201.255 987.307M187.631 986.602L186.962 982.992" stroke="#343434" stroke-linecap="round" stroke-linejoin="round"/>
<path d="M160.16 966.254C160.16 966.254 160.486 968.341 162.06 970.304M173.234 979.328C173.234 979.328 174.046 976.81 172.771 974.883M162.06 970.304C162.714 971.121 163.584 971.915 164.736 972.53C164.948 972.643 165.151 972.742 165.345 972.829M162.06 970.304L164.736 967.038M162.06 974.883L165.345 972.829M165.345 972.829C167.7 973.885 168.85 973.162 170.09 973.21M170.09 973.21C170.646 973.231 171.219 973.408 171.927 973.968C172.278 974.246 172.554 974.556 172.771 974.883M170.09 973.21V969.653M172.771 974.883L169.312 977.498" stroke="#343434" stroke-linecap="round" stroke-linejoin="round"/>
<path d="M180.295 982.729C180.295 982.729 182.648 966.778 181.602 962.856C180.556 958.934 176.768 955.952 175.98 950.828C175.553 948.052 175.719 944.159 175.719 943.603C175.718 943.048 175.766 938.817 177.941 938.145C179.349 937.71 181.602 939.06 181.602 939.06C181.602 939.06 182.531 935.847 184.217 935.53C185.252 935.336 186.832 936.184 186.832 936.184C186.832 936.184 188.21 933.816 189.708 933.569C190.857 933.38 192.585 934.354 192.585 934.354C192.585 934.354 194.489 931.698 196.246 931.739C198.303 931.787 199.906 936.251 199.906 936.251M197.684 978.153L196.891 961.305L193.5 962.856C193.5 962.856 198.477 960.911 200.952 958.672C203.683 956.202 205.094 954.345 206.182 950.828C207.314 947.169 207.228 944.552 207.228 941.937C207.228 939.322 206.574 938.537 205.398 937.361C204.221 936.184 197.684 936.184 197.684 936.184C197.684 936.184 192.803 935.402 192.585 936.838C192.517 937.285 192.791 937.754 193.128 938.145M199.906 946.121V944.029M177.941 946.905C177.941 946.905 179.962 949.141 181.602 948.997C182.763 948.895 184.217 947.558 184.217 947.558M184.217 947.558C184.217 947.558 185.493 949.719 186.832 949.781C188.25 949.847 189.708 947.558 189.708 947.558M184.217 947.558L182.256 941.937M189.708 947.558C189.708 947.558 192.203 948.971 193.5 948.212M189.708 947.558L187.878 939.06M193.5 948.212C194.355 947.712 194.807 947.2 194.938 946.121C195.069 945.042 193.128 938.145 193.128 938.145M193.5 948.212C193.5 948.212 190.406 950.664 189.708 952.919C189.15 954.724 189.708 957.757 189.708 957.757M193.5 948.212L199.906 944.029M193.128 938.145C193.583 938.674 194.154 939.06 194.154 939.06L199.906 941.937V944.029" stroke="#343434" stroke-linecap="round" stroke-linejoin="round"/>
<path d="M175.065 962.203L177.026 964.426" stroke="#343434" stroke-linecap="round" stroke-linejoin="round"/>
<path d="M180.033 987.959L179.249 991.489" stroke="#343434" stroke-linecap="round" stroke-linejoin="round"/>
<path d="M171.012 984.952L167.743 983.906" stroke="#343434" stroke-linecap="round" stroke-linejoin="round"/>
<path d="M207.621 974.494L208.274 972.01" stroke="#343434" stroke-linecap="round" stroke-linejoin="round"/>
<path d="M207.621 968.869C207.621 968.869 209.159 966.072 210.889 965.338M210.889 965.338L211.543 961.285M210.889 965.338C212.374 964.709 213.567 965.785 214.995 965.487M218.995 959.324C218.995 959.324 218.536 961.545 217.48 963.331M214.995 965.487C215.149 965.455 215.305 965.406 215.465 965.338C216.293 964.987 216.959 964.212 217.48 963.331M214.995 965.487L218.995 967.561M217.48 963.331L215.465 960.239" stroke="#343434" stroke-linecap="round" stroke-linejoin="round"/>
</g>
<defs>
<clipPath id="clip0_257_7568">
<rect width="1205" height="430" fill="white" transform="matrix(0 1 -1 0 430.092 0)"/>
</clipPath>
</defs>
</svg>
