<svg width="431" height="1205" viewBox="0 0 431 1205" fill="none" xmlns="http://www.w3.org/2000/svg">
<g clip-path="url(#clip0_257_7568)">
<rect width="1205" height="430" transform="matrix(0 1 -1 0 430.092 0)" fill="#F4F4F4"/>
<path d="M190.326 1300.37L190.326 1019.09" stroke="#FFD249" stroke-width="4"/>
<path d="M190.326 225V366.948C202.588 366.948 214.575 370.584 224.771 377.397C234.967 384.21 242.914 393.893 247.606 405.222C252.299 416.551 253.527 429.017 251.135 441.044C248.742 453.071 242.837 464.118 234.167 472.789C225.496 481.46 214.448 487.365 202.422 489.757C190.395 492.149 177.929 490.921 166.6 486.229C155.271 481.536 145.587 473.589 138.775 463.394C131.962 453.198 128.326 441.211 128.326 428.948H84.3259" stroke="#FFD249" stroke-width="4"/>
<path d="M190.326 755.891V897.839C202.588 897.839 214.575 901.475 224.771 908.288C234.967 915.1 242.914 924.783 247.606 936.112C252.299 947.442 253.527 959.908 251.135 971.934C248.742 983.961 242.837 995.009 234.167 1003.68C225.496 1012.35 214.448 1018.26 202.422 1020.65C190.395 1023.04 177.929 1021.81 166.6 1017.12C155.271 1012.43 145.587 1004.48 138.775 994.284C131.962 984.088 128.326 972.101 128.326 959.839H84.3259" stroke="#FFD249" stroke-width="4"/>
<path d="M192.149 489.945V631.894C179.886 631.894 167.899 635.53 157.704 642.342C147.508 649.155 139.561 658.838 134.868 670.167C130.176 681.496 128.948 693.962 131.34 705.989C133.733 718.016 139.637 729.063 148.308 737.734C156.979 746.405 168.026 752.31 180.053 754.702C192.08 757.095 204.546 755.867 215.875 751.174C227.204 746.481 236.887 738.535 243.7 728.339C250.513 718.143 254.149 706.156 254.149 693.894H282.092" stroke="#FFD249" stroke-width="4"/>
<path d="M190.398 -43.4063V98.542C178.136 98.542 166.149 102.178 155.953 108.991C145.757 115.804 137.81 125.487 133.118 136.816C128.425 148.145 127.197 160.611 129.59 172.638C131.982 184.664 137.887 195.712 146.558 204.383C155.228 213.053 166.276 218.958 178.303 221.351C190.329 223.743 202.796 222.515 214.125 217.823C225.454 213.13 235.137 205.183 241.949 194.987C248.762 184.792 252.398 172.804 252.398 160.542H296.398" stroke="#FFD249" stroke-width="4"/>
</g>
<defs>
<clipPath id="clip0_257_7568">
<rect width="1205" height="430" fill="white" transform="matrix(0 1 -1 0 430.092 0)"/>
</clipPath>
</defs>
</svg>
