<svg width="431" height="1205" fill="none" xmlns="http://www.w3.org/2000/svg"><g clip-path="url(#clip0_257_7568)"><path fill="#F4F4F4" d="M430.092 0v1205h-430V0z"/><path d="M194.39 161.476l-.751-.684c-2.667-2.418-4.428-4.019-4.428-5.971 0-1.6 1.254-2.848 2.849-2.848.901 0 1.766.419 2.33 1.077a3.115 3.115 0 012.331-1.077 2.817 2.817 0 012.848 2.848c0 1.952-1.761 3.553-4.428 5.971l-.751.684zm17.756 12.69l-.471-.429c-1.673-1.517-2.777-2.52-2.777-3.745 0-1.003.786-1.786 1.787-1.786a1.95 1.95 0 011.461.676 1.951 1.951 0 011.462-.676c1 0 1.786.783 1.786 1.786 0 1.225-1.104 2.228-2.777 3.745l-.471.429zm-38.651-3.408l-.569-.518c-2.02-1.832-3.354-3.044-3.354-4.524 0-1.212.949-2.157 2.158-2.157.683 0 1.338.317 1.765.816a2.358 2.358 0 011.766-.816c1.208 0 2.158.945 2.158 2.157 0 1.48-1.334 2.692-3.355 4.524l-.569.518z" fill="#FFD249"/><path d="M190.45 184.476s1.073-15.876 0-17.593c-1.073-1.716-2.789-3.968-4.29-7.079-1.502-3.111-3.433-12.23-2.468-14.161.966-1.931 2.468 1.717 2.468 1.717l1.715 5.149V135.13s0-1.716 1.553-1.716c1.552 0 2.095 1.716 2.095 1.716m0 0v11.8m0-11.8s-.322-4.182 1.502-4.505c1.825-.323 2.359 2.789 2.359 2.789m0 0s.92-1.609 1.932-1.609c1.609 0 2.145 2.467 2.145 2.467v3.433m-4.077-4.291v13.516m4.077-9.225s1.566-.468 2.36 0c.938.553 1.063 3.214 1.063 3.214v16.31c0 5.471-1.814 7.459-2.135 9.654-1.044 7.13-.644 17.593-.644 17.593m-.644-46.771v10.298m10.131 36.474s.672-8.086 0-8.961c-.672-.874-1.746-2.021-2.686-3.605-.94-1.585-2.149-6.229-1.544-7.212.604-.984 1.544.874 1.544.874l1.074 2.623v-8.851s0-.875.972-.875 1.312.875 1.312.875m0 0v6.009m0-6.009s-.202-2.13.94-2.295c1.143-.165 1.477 1.42 1.477 1.42m0 0s.576-.819 1.21-.819c1.007 0 1.342 1.257 1.342 1.257v1.748m-2.552-2.186v6.884m2.552-4.698s.981-.238 1.478 0c.587.281.666 1.637.666 1.637v8.306c0 2.787-1.136 3.8-1.337 4.917-.654 3.632-.403 8.961-.403 8.961m-.404-23.821v5.245m-44.988 18.575s.832-10.011 0-11.093c-.831-1.082-2.161-2.502-3.325-4.464-1.164-1.962-2.66-7.711-1.912-8.929.748-1.217 1.912 1.083 1.912 1.083l1.33 3.246v-10.958s0-1.082 1.203-1.082c1.204 0 1.624 1.082 1.624 1.082m0 0v7.441m0-7.441s-.25-2.637 1.164-2.84c1.415-.204 1.829 1.758 1.829 1.758m0 0s.713-1.014 1.497-1.014c1.248 0 1.663 1.555 1.663 1.555v2.165m-3.16-2.706v8.523m3.16-5.817s1.213-.295 1.829 0c.727.349.824 2.027.824 2.027v10.284c0 3.449-1.406 4.703-1.655 6.087-.809 4.496-.499 11.093-.499 11.093m-.499-29.491v6.493" stroke="#343434"/><path d="M190.326 1300.37v-281.28m0-794.09v141.948a61.998 61.998 0 0157.28 38.274 62 62 0 11-119.28 23.726h-44m106 326.943v141.948a61.998 61.998 0 0157.28 38.273 62.001 62.001 0 01-45.184 84.538 62.041 62.041 0 01-35.822-3.53 61.998 61.998 0 01-38.274-57.281h-44" stroke="#FFD249" stroke-width="4"/><path d="M192.149 489.945v141.949a62 62 0 1062 62h27.943m-91.694-737.3V98.542a61.998 61.998 0 00-60.808 74.096 62 62 0 00122.808-12.096h44" stroke="#FFD249" stroke-width="4"/><rect x="168.257" y="402.484" width="40.809" height="54" rx="1.5" stroke="#343434"/><path d="M175.484 412.869h27.5m-27.5 8.881h27.5m-27.5 8.881h27.5m-27.5 8.881h27.5m-27.5 8.879h27.5" stroke="#343434"/><circle cx="209.566" cy="439.511" r="11.458" fill="#FFD249"/><path d="M204.982 438.651l4.011 5.729 5.156-9.739M199.255 684.57a2.898 2.898 0 10.002-5.796 2.898 2.898 0 00-.002 5.796zm-15.594 0a2.898 2.898 0 10.002-5.796 2.898 2.898 0 00-.002 5.796zm18.079 1h-4.969a3.328 3.328 0 00-2.34.973 3.328 3.328 0 00-.973 2.34v5.565c0 .561.437 1.039.998 1.059a1.046 1.046 0 00.756-.289 1.034 1.034 0 00.317-.745v-5.162a.42.42 0 01.386-.427.41.41 0 01.408.249.424.424 0 01.034.165v14.957a1.192 1.192 0 001.19 1.19 1.19 1.19 0 001.191-1.19v-7.384a.525.525 0 01.691-.506.514.514 0 01.344.489v7.401a1.192 1.192 0 001.19 1.19 1.19 1.19 0 001.191-1.19v-14.944a.42.42 0 01.386-.427.41.41 0 01.408.249.424.424 0 01.034.165v5.151c0 .561.436 1.039.997 1.059.139.005.278-.018.408-.067a1.049 1.049 0 00.583-.563c.054-.128.082-.266.082-.405v-5.59a3.324 3.324 0 00-3.312-3.313zm-15.594 0h-4.969a3.324 3.324 0 00-3.312 3.313v5.565c0 .561.436 1.039.997 1.059a1.039 1.039 0 001.073-1.034v-5.162a.424.424 0 01.386-.427.41.41 0 01.408.249.406.406 0 01.034.165v14.957a1.189 1.189 0 002.032.842c.223-.224.349-.526.349-.842v-7.384a.53.53 0 01.483-.535.505.505 0 01.388.139.524.524 0 01.164.379v7.401a1.189 1.189 0 002.032.842c.223-.224.349-.526.349-.842v-14.944a.424.424 0 01.386-.427.41.41 0 01.408.249.406.406 0 01.034.165v5.151c0 .561.436 1.039.997 1.059.139.005.278-.018.408-.067a1.049 1.049 0 00.583-.563c.054-.128.082-.266.082-.405v-5.59a3.32 3.32 0 00-3.312-3.313z" stroke="#343434"/><path d="M179.45 692.938h-4.968a3.32 3.32 0 00-3.313 3.312v5.565c0 .562.437 1.039.998 1.059a1.033 1.033 0 001.073-1.034v-5.162a.42.42 0 01.386-.427.41.41 0 01.408.249.424.424 0 01.034.165v14.957a1.19 1.19 0 102.38 0v-7.384a.532.532 0 01.483-.535.512.512 0 01.51.311.526.526 0 01.043.207v7.401a1.19 1.19 0 102.381 0v-14.944a.42.42 0 01.386-.427.41.41 0 01.408.249.424.424 0 01.034.165v5.151c0 .562.436 1.039.997 1.06a1.034 1.034 0 001.073-1.036v-5.59a3.32 3.32 0 00-3.313-3.312zm-2.484-.829a2.898 2.898 0 10.002-5.796 2.898 2.898 0 00-.002 5.796zm14.492 0a2.898 2.898 0 10.002-5.796 2.898 2.898 0 00-.002 5.796zm14.492 0a2.898 2.898 0 10.002-5.796 2.898 2.898 0 00-.002 5.796zm-12.007.829h-4.969a3.32 3.32 0 00-3.313 3.312v5.565c0 .562.437 1.039.998 1.059a1.033 1.033 0 001.073-1.034v-5.162a.42.42 0 01.386-.427.41.41 0 01.408.249.424.424 0 01.034.165v14.957a1.19 1.19 0 102.381 0v-7.384a.531.531 0 01.483-.535.51.51 0 01.388.139.507.507 0 01.164.379v7.401a1.19 1.19 0 102.381 0v-14.944a.42.42 0 01.386-.427.41.41 0 01.408.249.424.424 0 01.034.165v5.151c0 .562.436 1.039.997 1.06a1.034 1.034 0 001.073-1.036v-5.59a3.32 3.32 0 00-3.312-3.312zm14.492 0h-4.969a3.316 3.316 0 00-2.339.973 3.316 3.316 0 00-.973 2.339v5.565c0 .562.436 1.039.997 1.059a1.015 1.015 0 00.756-.289 1.024 1.024 0 00.317-.745v-5.162a.426.426 0 01.387-.427.408.408 0 01.31.111.406.406 0 01.131.303v14.957a1.187 1.187 0 001.19 1.19 1.19 1.19 0 001.191-1.19v-7.384a.531.531 0 01.483-.535.505.505 0 01.388.139.524.524 0 01.164.379v7.401a1.187 1.187 0 001.19 1.19 1.19 1.19 0 001.191-1.19v-14.944a.426.426 0 01.387-.427.408.408 0 01.31.111.406.406 0 01.131.303v5.151c0 .562.436 1.039.997 1.06a1.03 1.03 0 00.991-.631c.055-.128.082-.266.082-.405v-5.59a3.316 3.316 0 00-.973-2.339 3.316 3.316 0 00-2.339-.973z" fill="#F4F4F4" stroke="#343434"/><path d="M170.277 673.465l21.79-8.521 21.434 9.382 8.521 21.791-9.382 21.433-21.791 8.522-21.433-9.383-8.522-21.79 9.383-21.434z" stroke="#343434"/><path d="M222.091 695.964v.001h0l-.068.195.09.184v.001h0l.001.001h0l.006.013.028.065c.024.06.061.153.104.279.086.252.196.632.289 1.13.184.997.295 2.469-.016 4.336-.623 3.728-2.941 9.085-9.848 15.403-6.915 6.325-12.371 8.437-16.054 8.993-1.843.278-3.251.169-4.189-.005a7.487 7.487 0 01-1.052-.269c-.115-.04-.2-.073-.254-.096l-.057-.025-.01-.005h-.001 0l-.001-.001h0l-.239-.118-.23.133-.001.001h0l-.001.001-.009.004a3.37 3.37 0 01-.292.133 6.33 6.33 0 01-1.004.301c-.897.195-2.253.323-4.044.023-3.579-.6-8.942-2.919-15.858-9.929-6.911-7.006-9.009-12.451-9.419-16.089-.206-1.821.009-3.203.268-4.121a6.73 6.73 0 01.377-1.028 4.329 4.329 0 01.159-.303l.006-.011h0l.001-.001h0l.121-.186-.058-.215v-.001h0l-.001-.003-.004-.018a6.67 6.67 0 01-.085-.416 12.31 12.31 0 01-.152-1.311c-.074-1.138-.049-2.778.357-4.761.81-3.959 3.142-9.316 9.284-14.801 6.231-5.564 9.371-7.698 12.071-8.464 1.34-.381 2.594-.43 4.114-.367.548.022 1.141.061 1.788.102 1.117.072 2.392.154 3.86.184 1.868.037 3.395-.069 4.711-.161.341-.023.667-.046.982-.065 1.537-.093 2.786-.096 4.103.265 2.646.726 5.687 2.96 11.662 9.351 5.906 6.318 8.025 11.774 8.683 15.618.33 1.924.295 3.452.181 4.492-.058.52-.135.918-.197 1.182a4.689 4.689 0 01-.097.363l-.005.015v.001z" stroke="#343434"/><path d="M189.708 723.188v6.5l1.75-6.5v6.5l1.75-6.5v6.5m-3.5-69.155v6.5l1.75-6.5v6.5l1.75-6.5v6.5m-23.579 45.822l-4.779 4.406 5.965-3.119-4.779 4.406 5.966-3.12-4.779 4.406m48.471-49.448l-4.779 4.406 5.965-3.119-4.779 4.406 5.965-3.12-4.779 4.406m-49.827 15.009l-6.496-.229 6.434 1.978-6.496-.229 6.435 1.978-6.496-.229m69.234-1.065l-6.496-.229 6.435 1.978-6.496-.229 6.434 1.977-6.496-.228m-46.146-24.231l-4.494-4.696 3.23 5.906-4.494-4.696 3.23 5.906-4.494-4.696m50.34 47.543l-4.494-4.696 3.23 5.906-4.494-4.696 3.229 5.906-4.494-4.697m.63 226.376l6.799-9.806m-9.544 25.495l13.597-12.551m-57.92-11.766l8.368 13.859m5.883-20.92l1.7 6.929M163.69 951.48l7.976 7.714m-13.336-13.071l2.353 2.615m14.946 32.294s-3.661 1.045-4.838 4.575c-.984 2.952 8.91 2.507 16.84.995m13.624-11.716s6.085-1.618 7.844.915c1.414 2.036-.209 3.762-3.109 5.231m0 0l3.984 1.96m-3.984-1.96c-2.577 1.305-6.163 2.408-9.519 3.346m0 0c-1.596.446-3.14.854-4.499 1.229a56.07 56.07 0 01-4.341.995m8.84-2.224l4.784 2.929m-13.624-.705l-.669-3.61m-26.802-16.738s.326 2.087 1.9 4.05m11.174 9.024s.812-2.518-.463-4.445m-10.711-4.579a8.588 8.588 0 002.676 2.226c.212.113.415.212.609.299m-3.285-2.525l2.676-3.266m-2.676 7.845l3.285-2.054m0 0c2.355 1.056 3.505.333 4.745.381m0 0c.556.021 1.129.198 1.837.758.351.278.627.588.844.915m-2.681-1.673v-3.557m2.681 5.23l-3.459 2.615m10.983 5.231s2.353-15.951 1.307-19.873c-1.046-3.922-4.834-6.904-5.622-12.028-.427-2.776-.261-6.669-.261-7.225-.001-.555.047-4.786 2.222-5.458 1.408-.435 3.661.915 3.661.915s.929-3.213 2.615-3.53c1.035-.194 2.615.654 2.615.654s1.378-2.368 2.876-2.615c1.149-.189 2.877.785 2.877.785s1.904-2.656 3.661-2.615c2.057.048 3.66 4.512 3.66 4.512m-2.222 41.902l-.793-16.848-3.391 1.551s4.977-1.945 7.452-4.184c2.731-2.47 4.142-4.327 5.23-7.844 1.132-3.659 1.046-6.276 1.046-8.891s-.654-3.4-1.83-4.576c-1.177-1.177-7.714-1.177-7.714-1.177s-4.881-.782-5.099.654c-.068.447.206.916.543 1.307m6.778 7.976v-2.092m-21.965 2.876s2.021 2.236 3.661 2.092c1.161-.102 2.615-1.439 2.615-1.439m0 0s1.276 2.161 2.615 2.223c1.418.066 2.876-2.223 2.876-2.223m-5.491 0l-1.961-5.621m7.452 5.621s2.495 1.413 3.792.654m-3.792-.654l-1.83-8.498m5.622 9.152c.855-.5 1.307-1.012 1.438-2.091.131-1.079-1.81-7.976-1.81-7.976m.372 10.067s-3.094 2.452-3.792 4.707c-.558 1.805 0 4.838 0 4.838m3.792-9.545l6.406-4.183m-6.778-5.884c.455.529 1.026.915 1.026.915l5.752 2.877v2.092m-24.841 18.174l1.961 2.223m3.007 23.533l-.784 3.53m-8.237-6.537l-3.269-1.046m39.878-9.412l.653-2.484m-.653-3.141s1.538-2.797 3.268-3.531m0 0l.654-4.053m-.654 4.053c1.485-.629 2.678.447 4.106.149m4-6.163s-.459 2.221-1.515 4.007m-2.485 2.156c.154-.032.31-.081.47-.149.828-.351 1.494-1.126 2.015-2.007m-2.485 2.156l4 2.074m-1.515-4.23l-2.015-3.092" stroke="#343434" stroke-linecap="round" stroke-linejoin="round"/></g><defs><clipPath id="clip0_257_7568"><path fill="#fff" transform="rotate(90 215.046 215.046)" d="M0 0h1205v430H0z"/></clipPath></defs></svg>