<svg width="431" height="1205" fill="none" xmlns="http://www.w3.org/2000/svg"><g clip-path="url(#clip0_257_7568)"><path fill="#F4F4F4" d="M430.092 0v1205h-430V0z"/><path d="M190.326 1300.37v-281.28m0-794.09v141.948a61.998 61.998 0 0157.28 38.274 62 62 0 11-119.28 23.726h-44m106 326.943v141.948a61.998 61.998 0 0157.28 38.273 62.001 62.001 0 01-45.184 84.538 62.041 62.041 0 01-35.822-3.53 61.998 61.998 0 01-38.274-57.281h-44" stroke="#FFD249" stroke-width="4"/><path d="M192.149 489.945v141.949a62 62 0 1062 62h27.943m-91.694-737.3V98.542a61.998 61.998 0 00-60.808 74.096 62 62 0 00122.808-12.096h44" stroke="#FFD249" stroke-width="4"/></g><defs><clipPath id="clip0_257_7568"><path fill="#fff" transform="rotate(90 215.046 215.046)" d="M0 0h1205v430H0z"/></clipPath></defs></svg>